<svg xmlns="http://www.w3.org/2000/svg" xmlns:xlink="http://www.w3.org/1999/xlink" width="1920" zoomAndPan="magnify" viewBox="0 0 1440 809.999993" height="1080" preserveAspectRatio="xMidYMid meet" version="1.0"><defs><clipPath id="5d2a958abc"><path d="M 469 213 L 971 213 L 971 728.9375 L 469 728.9375 Z M 469 213 " clip-rule="nonzero"/></clipPath></defs><path fill="#ffa685" d="M 1058.121094 286.472656 C 1058.121094 286.472656 1066.917969 385.257812 1061.464844 516.683594 L 969.992188 551.226562 L 969.992188 268.578125 Z M 1058.121094 286.472656 " fill-opacity="1" fill-rule="nonzero"/><path fill="#631818" d="M 1058.121094 286.472656 C 1058.121094 286.472656 1066.917969 385.257812 1061.464844 516.683594 L 969.992188 551.226562 L 969.992188 268.578125 Z M 1058.121094 286.472656 " fill-opacity="0.5" fill-rule="nonzero"/><path fill="#ffa685" d="M 381.777344 286.472656 C 381.777344 286.472656 372.984375 385.257812 378.4375 516.683594 L 469.90625 551.226562 L 469.90625 268.578125 Z M 381.777344 286.472656 " fill-opacity="1" fill-rule="nonzero"/><path fill="#631818" d="M 381.777344 286.472656 C 381.777344 286.472656 372.984375 385.257812 378.4375 516.683594 L 469.90625 551.226562 L 469.90625 268.578125 Z M 381.777344 286.472656 " fill-opacity="0.5" fill-rule="nonzero"/><path fill="#ffa685" d="M 514.609375 523.753906 C 514.609375 523.753906 448.328125 435.488281 383.21875 469.730469 C 354.894531 484.628906 340.089844 517.386719 347.011719 548.617188 C 355.285156 585.933594 390.304688 629.734375 514.609375 612.171875 Z M 514.609375 523.753906 " fill-opacity="1" fill-rule="nonzero"/><path fill="#631818" d="M 381.523438 550.519531 C 380.117188 551.328125 379.082031 552.707031 378.648438 554.328125 C 378.210938 555.929688 378.4375 557.578125 379.246094 558.988281 C 380.925781 561.878906 384.882812 562.945312 387.773438 561.265625 L 415.585938 545.183594 L 431.726562 573.015625 C 433.402344 575.90625 437.359375 576.96875 440.25 575.292969 C 441.660156 574.484375 442.679688 573.164062 443.097656 571.546875 C 443.519531 569.925781 443.324219 568.234375 442.515625 566.824219 L 426.390625 538.9375 L 454.277344 522.8125 C 455.6875 522.003906 456.71875 520.625 457.15625 519.003906 C 457.589844 517.386719 457.363281 515.753906 456.554688 514.34375 C 454.878906 511.453125 450.921875 510.386719 448.027344 512.066406 L 420.15625 528.117188 L 404.078125 500.304688 C 402.398438 497.410156 398.441406 496.347656 395.550781 498.023438 C 394.140625 498.835938 393.125 500.152344 392.703125 501.773438 C 392.269531 503.375 392.480469 505.082031 393.289062 506.492188 L 409.410156 534.378906 Z M 381.523438 550.519531 " fill-opacity="1" fill-rule="nonzero"/><path fill="#ffa685" d="M 925.292969 523.753906 C 925.292969 523.753906 991.570312 435.488281 1056.683594 469.730469 C 1085.003906 484.628906 1099.808594 517.386719 1092.886719 548.617188 C 1084.617188 585.933594 1049.59375 629.734375 925.292969 612.171875 Z M 925.292969 523.753906 " fill-opacity="1" fill-rule="nonzero"/><path fill="#631818" d="M 1058.375 550.519531 C 1059.785156 551.328125 1060.820312 552.707031 1061.253906 554.328125 C 1061.6875 555.929688 1061.464844 557.578125 1060.652344 558.988281 C 1058.976562 561.878906 1055.019531 562.945312 1052.128906 561.265625 L 1024.316406 545.183594 L 1008.175781 573.015625 C 1006.496094 575.90625 1002.542969 576.96875 999.648438 575.292969 C 998.242188 574.484375 997.222656 573.164062 996.800781 571.546875 C 996.382812 569.925781 996.578125 568.234375 997.386719 566.824219 L 1013.511719 538.9375 L 985.625 522.8125 C 984.214844 522.003906 983.179688 520.625 982.746094 519.003906 C 982.3125 517.386719 982.535156 515.753906 983.34375 514.34375 C 985.023438 511.453125 988.980469 510.386719 991.871094 512.066406 L 1019.746094 528.117188 L 1035.824219 500.304688 C 1037.5 497.410156 1041.457031 496.347656 1044.351562 498.023438 C 1045.757812 498.835938 1046.777344 500.152344 1047.199219 501.773438 C 1047.617188 503.390625 1047.421875 505.082031 1046.613281 506.492188 L 1030.488281 534.378906 Z M 1058.375 550.519531 " fill-opacity="1" fill-rule="nonzero"/><g clip-path="url(#5d2a958abc)"><path fill="#ffa685" d="M 469.878906 268.578125 L 469.878906 559.691406 C 469.878906 636.523438 524.078125 702.878906 599.453125 717.640625 C 632.929688 724.207031 673.046875 728.714844 719.964844 728.714844 C 766.855469 728.714844 806.96875 724.207031 840.429688 717.640625 C 915.835938 702.878906 970.007812 636.539062 970.007812 559.691406 L 970.007812 268.578125 C 970.007812 268.578125 897.089844 213.65625 719.964844 213.65625 C 542.78125 213.671875 469.878906 268.578125 469.878906 268.578125 Z M 469.878906 268.578125 " fill-opacity="1" fill-rule="nonzero"/></g><path fill="#631818" d="M 969.992188 268.5625 L 969.992188 387.714844 C 944.742188 394.609375 884.90625 399.300781 824.996094 318.539062 C 824.996094 318.539062 759.511719 443.625 645.128906 419.378906 C 631.28125 416.414062 618.15625 410.164062 607.996094 400.304688 C 602.585938 395.132812 597.355469 388.417969 593.851562 380.164062 C 593.851562 380.164062 536.335938 451.058594 469.890625 413.625 L 469.890625 268.578125 C 469.890625 268.578125 542.808594 213.671875 719.933594 213.671875 C 897.058594 213.671875 969.992188 268.5625 969.992188 268.5625 Z M 969.992188 268.5625 " fill-opacity="0.15" fill-rule="nonzero"/><path fill="#631818" d="M 944.699219 369.628906 C 909.933594 367.875 847.128906 351.285156 829.386719 257.414062 C 829.386719 257.414062 773.808594 397.574219 667.683594 398.773438 C 627.148438 399.222656 595.152344 363.484375 600.59375 323.292969 C 600.667969 322.722656 600.757812 322.152344 600.832031 321.566406 C 600.832031 321.566406 579.71875 385.945312 522.699219 399.71875 C 485.253906 408.769531 449.8125 380.148438 452.597656 341.722656 C 453.347656 331.429688 455.882812 319.632812 461.097656 306.3125 C 461.097656 306.3125 442.859375 326.078125 419.03125 337.226562 C 387.535156 351.957031 351.988281 326.589844 355.210938 291.957031 C 360.15625 238.726562 383.335938 141.828125 482.71875 84.28125 C 532.558594 55.433594 590.882812 44.300781 648.097656 50.804688 C 701.773438 56.917969 774.527344 76.925781 841.375 134.351562 C 841.375 134.351562 851.835938 128.984375 869.277344 124.894531 C 958.214844 104.019531 1046.3125 161.070312 1067.996094 249.816406 C 1072.925781 270 1075.773438 293.648438 1074.546875 320.757812 C 1073.527344 342.921875 1052.832031 359.195312 1031.074219 354.894531 C 1015.519531 351.824219 999.003906 344.675781 988.828125 329.105469 C 988.828125 329.105469 988.828125 329.703125 988.769531 330.753906 C 987.421875 353.578125 967.535156 370.78125 944.699219 369.628906 Z M 944.699219 369.628906 " fill-opacity="1" fill-rule="nonzero"/><path fill="#631818" d="M 906.90625 487.851562 C 906.90625 489.925781 906.816406 491.996094 906.632812 494.0625 C 906.453125 496.128906 906.183594 498.179688 905.820312 500.214844 C 905.460938 502.253906 905.011719 504.265625 904.476562 506.25 C 903.9375 508.238281 903.316406 510.191406 902.609375 512.109375 C 901.902344 514.027344 901.113281 515.902344 900.242188 517.730469 C 899.367188 519.5625 898.417969 521.339844 897.390625 523.066406 C 896.363281 524.792969 895.265625 526.460938 894.09375 528.0625 C 892.917969 529.667969 891.679688 531.207031 890.371094 532.671875 C 889.066406 534.140625 887.695312 535.535156 886.265625 536.851562 C 884.839844 538.167969 883.355469 539.402344 881.816406 540.554688 C 880.28125 541.710938 878.695312 542.777344 877.066406 543.753906 C 875.4375 544.734375 873.765625 545.621094 872.058594 546.414062 C 870.351562 547.207031 868.613281 547.90625 866.84375 548.511719 C 865.074219 549.113281 863.28125 549.617188 861.46875 550.023438 C 859.65625 550.425781 857.828125 550.730469 855.988281 550.933594 C 854.148438 551.136719 852.304688 551.238281 850.457031 551.238281 C 848.609375 551.238281 846.761719 551.136719 844.921875 550.933594 C 843.082031 550.730469 841.257812 550.425781 839.445312 550.023438 C 837.628906 549.617188 835.839844 549.113281 834.070312 548.511719 C 832.300781 547.90625 830.5625 547.207031 828.855469 546.414062 C 827.144531 545.621094 825.476562 544.734375 823.847656 543.753906 C 822.214844 542.777344 820.632812 541.710938 819.09375 540.554688 C 817.558594 539.402344 816.074219 538.167969 814.644531 536.851562 C 813.214844 535.535156 811.847656 534.140625 810.539062 532.671875 C 809.234375 531.207031 807.992188 529.667969 806.820312 528.0625 C 805.648438 526.460938 804.546875 524.792969 803.519531 523.066406 C 802.492188 521.339844 801.542969 519.5625 800.671875 517.730469 C 799.800781 515.902344 799.011719 514.027344 798.304688 512.109375 C 797.597656 510.191406 796.972656 508.238281 796.4375 506.25 C 795.902344 504.265625 795.453125 502.253906 795.09375 500.214844 C 794.730469 498.179688 794.460938 496.128906 794.277344 494.0625 C 794.097656 491.996094 794.007812 489.925781 794.007812 487.851562 C 794.007812 485.773438 794.097656 483.703125 794.277344 481.636719 C 794.460938 479.570312 794.730469 477.519531 795.09375 475.484375 C 795.453125 473.445312 795.902344 471.433594 796.4375 469.449219 C 796.972656 467.460938 797.597656 465.507812 798.304688 463.589844 C 799.011719 461.671875 799.800781 459.800781 800.671875 457.96875 C 801.542969 456.136719 802.492188 454.359375 803.519531 452.632812 C 804.546875 450.90625 805.648438 449.242188 806.820312 447.636719 C 807.992188 446.03125 809.234375 444.496094 810.539062 443.027344 C 811.847656 441.558594 813.214844 440.164062 814.644531 438.847656 C 816.074219 437.53125 817.558594 436.296875 819.09375 435.144531 C 820.632812 433.988281 822.214844 432.921875 823.847656 431.945312 C 825.476562 430.964844 827.144531 430.078125 828.855469 429.285156 C 830.5625 428.492188 832.300781 427.792969 834.070312 427.191406 C 835.839844 426.585938 837.628906 426.082031 839.445312 425.679688 C 841.257812 425.273438 843.082031 424.96875 844.921875 424.765625 C 846.761719 424.5625 848.609375 424.460938 850.457031 424.460938 C 852.304688 424.460938 854.148438 424.5625 855.988281 424.765625 C 857.828125 424.96875 859.65625 425.273438 861.46875 425.679688 C 863.28125 426.082031 865.074219 426.585938 866.84375 427.191406 C 868.613281 427.792969 870.351562 428.492188 872.058594 429.285156 C 873.765625 430.078125 875.4375 430.964844 877.066406 431.945312 C 878.695312 432.921875 880.28125 433.988281 881.816406 435.144531 C 883.355469 436.296875 884.839844 437.53125 886.265625 438.847656 C 887.695312 440.164062 889.066406 441.558594 890.371094 443.027344 C 891.679688 444.496094 892.917969 446.03125 894.09375 447.636719 C 895.265625 449.242188 896.363281 450.90625 897.390625 452.632812 C 898.417969 454.359375 899.367188 456.136719 900.242188 457.96875 C 901.113281 459.800781 901.902344 461.671875 902.609375 463.589844 C 903.316406 465.507812 903.9375 467.460938 904.476562 469.449219 C 905.011719 471.433594 905.460938 473.445312 905.820312 475.484375 C 906.183594 477.519531 906.453125 479.570312 906.632812 481.636719 C 906.816406 483.703125 906.90625 485.773438 906.90625 487.851562 Z M 906.90625 487.851562 " fill-opacity="1" fill-rule="nonzero"/><path fill="#ffffff" d="M 849.960938 461.847656 C 849.960938 462.425781 849.933594 463 849.878906 463.574219 C 849.820312 464.144531 849.738281 464.714844 849.625 465.277344 C 849.511719 465.84375 849.371094 466.402344 849.207031 466.953125 C 849.039062 467.503906 848.84375 468.042969 848.625 468.578125 C 848.402344 469.109375 848.15625 469.628906 847.886719 470.136719 C 847.613281 470.644531 847.320312 471.136719 847 471.617188 C 846.679688 472.09375 846.335938 472.554688 845.972656 473 C 845.605469 473.445312 845.21875 473.871094 844.8125 474.277344 C 844.40625 474.6875 843.980469 475.074219 843.535156 475.4375 C 843.089844 475.804688 842.628906 476.144531 842.148438 476.464844 C 841.671875 476.785156 841.179688 477.082031 840.671875 477.351562 C 840.164062 477.625 839.644531 477.871094 839.109375 478.089844 C 838.578125 478.308594 838.039062 478.503906 837.488281 478.671875 C 836.9375 478.839844 836.378906 478.976562 835.8125 479.089844 C 835.25 479.203125 834.679688 479.285156 834.105469 479.34375 C 833.535156 479.398438 832.960938 479.429688 832.382812 479.429688 C 831.808594 479.429688 831.234375 479.398438 830.660156 479.34375 C 830.089844 479.285156 829.519531 479.203125 828.953125 479.089844 C 828.390625 478.976562 827.832031 478.839844 827.28125 478.671875 C 826.730469 478.503906 826.191406 478.308594 825.65625 478.089844 C 825.125 477.871094 824.605469 477.625 824.097656 477.351562 C 823.589844 477.082031 823.097656 476.785156 822.617188 476.464844 C 822.140625 476.144531 821.679688 475.804688 821.234375 475.4375 C 820.789062 475.074219 820.363281 474.6875 819.953125 474.277344 C 819.546875 473.871094 819.160156 473.445312 818.796875 473 C 818.429688 472.554688 818.089844 472.09375 817.769531 471.617188 C 817.449219 471.136719 817.152344 470.644531 816.882812 470.136719 C 816.609375 469.628906 816.363281 469.109375 816.144531 468.578125 C 815.925781 468.042969 815.730469 467.503906 815.5625 466.953125 C 815.398438 466.402344 815.257812 465.84375 815.144531 465.277344 C 815.03125 464.714844 814.949219 464.144531 814.890625 463.574219 C 814.835938 463 814.808594 462.425781 814.808594 461.847656 C 814.808594 461.273438 814.835938 460.699219 814.890625 460.125 C 814.949219 459.554688 815.03125 458.984375 815.144531 458.421875 C 815.257812 457.855469 815.398438 457.296875 815.5625 456.746094 C 815.730469 456.195312 815.925781 455.65625 816.144531 455.121094 C 816.363281 454.589844 816.609375 454.070312 816.882812 453.5625 C 817.152344 453.054688 817.449219 452.5625 817.769531 452.082031 C 818.089844 451.605469 818.429688 451.144531 818.796875 450.699219 C 819.160156 450.253906 819.546875 449.828125 819.953125 449.417969 C 820.363281 449.011719 820.789062 448.625 821.234375 448.261719 C 821.679688 447.894531 822.140625 447.554688 822.617188 447.234375 C 823.097656 446.914062 823.589844 446.617188 824.097656 446.347656 C 824.605469 446.074219 825.125 445.828125 825.65625 445.609375 C 826.191406 445.390625 826.730469 445.195312 827.28125 445.027344 C 827.832031 444.859375 828.390625 444.722656 828.953125 444.609375 C 829.519531 444.496094 830.089844 444.414062 830.660156 444.355469 C 831.234375 444.300781 831.808594 444.269531 832.382812 444.269531 C 832.960938 444.269531 833.535156 444.300781 834.105469 444.355469 C 834.679688 444.414062 835.25 444.496094 835.8125 444.609375 C 836.378906 444.722656 836.9375 444.859375 837.488281 445.027344 C 838.039062 445.195312 838.578125 445.390625 839.109375 445.609375 C 839.644531 445.828125 840.164062 446.074219 840.671875 446.347656 C 841.179688 446.617188 841.671875 446.914062 842.148438 447.234375 C 842.628906 447.554688 843.089844 447.894531 843.535156 448.261719 C 843.980469 448.625 844.40625 449.011719 844.8125 449.417969 C 845.21875 449.828125 845.605469 450.253906 845.972656 450.699219 C 846.335938 451.144531 846.679688 451.605469 847 452.082031 C 847.320312 452.5625 847.613281 453.054688 847.886719 453.5625 C 848.15625 454.070312 848.402344 454.589844 848.625 455.121094 C 848.84375 455.65625 849.039062 456.195312 849.207031 456.746094 C 849.371094 457.296875 849.511719 457.855469 849.625 458.421875 C 849.738281 458.984375 849.820312 459.554688 849.878906 460.125 C 849.933594 460.699219 849.960938 461.273438 849.960938 461.847656 Z M 849.960938 461.847656 " fill-opacity="1" fill-rule="nonzero"/><path fill="#631818" d="M 889.980469 337.074219 C 891.339844 337.429688 892.679688 337.832031 894.003906 338.28125 C 895.328125 338.734375 896.628906 339.230469 897.910156 339.773438 C 899.191406 340.320312 900.441406 340.90625 901.664062 341.539062 C 902.882812 342.171875 904.070312 342.84375 905.222656 343.558594 C 906.378906 344.269531 907.488281 345.023438 908.5625 345.8125 C 909.632812 346.601562 910.660156 347.421875 911.644531 348.277344 C 912.625 349.132812 913.558594 350.019531 914.4375 350.933594 C 915.320312 351.851562 916.148438 352.792969 916.921875 353.757812 C 917.695312 354.722656 918.410156 355.707031 919.066406 356.714844 C 919.722656 357.722656 920.320312 358.742188 920.855469 359.78125 C 921.390625 360.820312 921.859375 361.867188 922.265625 362.925781 C 922.675781 363.988281 923.015625 365.050781 923.292969 366.121094 C 923.566406 367.191406 923.777344 368.261719 923.917969 369.332031 C 924.058594 370.40625 924.132812 371.472656 924.140625 372.53125 C 924.144531 373.59375 924.085938 374.644531 923.953125 375.6875 C 923.824219 376.730469 923.628906 377.757812 923.367188 378.769531 C 923.101562 379.78125 922.773438 380.773438 922.378906 381.746094 C 921.980469 382.71875 921.523438 383.667969 921 384.589844 C 920.476562 385.515625 919.890625 386.410156 919.246094 387.277344 C 918.597656 388.140625 917.894531 388.972656 917.132812 389.773438 C 916.371094 390.574219 915.550781 391.335938 914.679688 392.0625 C 913.808594 392.789062 912.886719 393.476562 911.914062 394.121094 C 910.9375 394.765625 909.921875 395.367188 908.855469 395.925781 C 907.792969 396.484375 906.6875 396.996094 905.539062 397.460938 C 904.394531 397.925781 903.214844 398.34375 901.996094 398.714844 C 900.78125 399.082031 899.535156 399.402344 898.261719 399.667969 C 896.988281 399.9375 895.6875 400.15625 894.367188 400.320312 C 893.046875 400.488281 891.710938 400.597656 890.355469 400.660156 C 889 400.722656 887.636719 400.730469 886.261719 400.683594 C 884.886719 400.640625 883.507812 400.542969 882.125 400.394531 C 880.742188 400.246094 879.363281 400.046875 877.988281 399.792969 C 876.609375 399.539062 875.246094 399.238281 873.886719 398.882812 C 872.53125 398.53125 871.191406 398.128906 869.863281 397.675781 C 868.539062 397.226562 867.238281 396.730469 865.960938 396.183594 C 864.679688 395.640625 863.429688 395.054688 862.207031 394.421875 C 860.984375 393.789062 859.796875 393.117188 858.644531 392.402344 C 857.492188 391.6875 856.378906 390.9375 855.308594 390.148438 C 854.234375 389.359375 853.207031 388.539062 852.226562 387.679688 C 851.242188 386.824219 850.3125 385.941406 849.429688 385.023438 C 848.546875 384.109375 847.722656 383.167969 846.949219 382.203125 C 846.175781 381.238281 845.460938 380.25 844.804688 379.246094 C 844.144531 378.238281 843.550781 377.214844 843.015625 376.179688 C 842.480469 375.140625 842.007812 374.09375 841.601562 373.03125 C 841.195312 371.972656 840.855469 370.910156 840.578125 369.839844 C 840.300781 368.769531 840.09375 367.699219 839.953125 366.625 C 839.808594 365.554688 839.734375 364.488281 839.730469 363.425781 C 839.722656 362.367188 839.785156 361.3125 839.914062 360.273438 C 840.042969 359.230469 840.238281 358.203125 840.503906 357.191406 C 840.765625 356.179688 841.097656 355.1875 841.492188 354.214844 C 841.886719 353.242188 842.347656 352.292969 842.871094 351.367188 C 843.394531 350.445312 843.976562 349.550781 844.625 348.683594 C 845.269531 347.816406 845.972656 346.984375 846.738281 346.183594 C 847.5 345.386719 848.316406 344.621094 849.1875 343.898438 C 850.0625 343.171875 850.984375 342.484375 851.957031 341.839844 C 852.929688 341.195312 853.949219 340.59375 855.011719 340.035156 C 856.078125 339.476562 857.183594 338.964844 858.328125 338.5 C 859.476562 338.03125 860.65625 337.613281 861.871094 337.246094 C 863.085938 336.878906 864.332031 336.558594 865.609375 336.289062 C 866.882812 336.019531 868.179688 335.804688 869.5 335.640625 C 870.820312 335.472656 872.160156 335.359375 873.515625 335.300781 C 874.867188 335.238281 876.234375 335.230469 877.609375 335.273438 C 878.984375 335.320312 880.363281 335.414062 881.746094 335.566406 C 883.125 335.714844 884.507812 335.914062 885.882812 336.167969 C 887.257812 336.417969 888.625 336.722656 889.980469 337.074219 Z M 889.980469 337.074219 " fill-opacity="1" fill-rule="nonzero"/><path fill="#631818" d="M 645.894531 487.851562 C 645.894531 522.855469 620.613281 551.238281 589.445312 551.238281 C 558.273438 551.238281 532.996094 522.855469 532.996094 487.851562 C 532.996094 452.84375 558.273438 424.460938 589.445312 424.460938 C 620.613281 424.460938 645.894531 452.84375 645.894531 487.851562 Z M 645.894531 487.851562 " fill-opacity="1" fill-rule="nonzero"/><path fill="#ffffff" d="M 625.09375 461.847656 C 625.09375 471.558594 617.226562 479.429688 607.515625 479.429688 C 597.804688 479.429688 589.9375 471.558594 589.9375 461.847656 C 589.9375 452.140625 597.804688 444.269531 607.515625 444.269531 C 617.226562 444.269531 625.09375 452.140625 625.09375 461.847656 Z M 625.09375 461.847656 " fill-opacity="1" fill-rule="nonzero"/><path fill="#631818" d="M 599.429688 357.132812 C 599.695312 358.144531 599.890625 359.171875 600.019531 360.210938 C 600.148438 361.253906 600.210938 362.304688 600.203125 363.367188 C 600.199219 364.429688 600.125 365.496094 599.984375 366.566406 C 599.839844 367.636719 599.632812 368.710938 599.355469 369.78125 C 599.082031 370.851562 598.738281 371.914062 598.332031 372.972656 C 597.925781 374.03125 597.453125 375.082031 596.917969 376.121094 C 596.386719 377.15625 595.789062 378.179688 595.132812 379.1875 C 594.476562 380.191406 593.757812 381.179688 592.988281 382.144531 C 592.214844 383.109375 591.386719 384.050781 590.503906 384.964844 C 589.621094 385.878906 588.691406 386.765625 587.710938 387.621094 C 586.726562 388.480469 585.699219 389.300781 584.628906 390.089844 C 583.554688 390.878906 582.441406 391.628906 581.289062 392.34375 C 580.136719 393.058594 578.949219 393.730469 577.726562 394.363281 C 576.503906 394.996094 575.253906 395.582031 573.976562 396.125 C 572.695312 396.671875 571.394531 397.167969 570.070312 397.617188 C 568.746094 398.070312 567.40625 398.472656 566.046875 398.824219 C 564.691406 399.179688 563.324219 399.480469 561.949219 399.734375 C 560.570312 399.984375 559.191406 400.1875 557.808594 400.335938 C 556.429688 400.484375 555.050781 400.582031 553.675781 400.625 C 552.300781 400.671875 550.933594 400.664062 549.578125 400.601562 C 548.226562 400.539062 546.886719 400.425781 545.566406 400.261719 C 544.246094 400.097656 542.949219 399.878906 541.671875 399.609375 C 540.398438 399.34375 539.152344 399.023438 537.9375 398.65625 C 536.722656 398.285156 535.539062 397.867188 534.394531 397.402344 C 533.25 396.9375 532.144531 396.425781 531.078125 395.867188 C 530.015625 395.308594 528.996094 394.707031 528.023438 394.0625 C 527.050781 393.417969 526.125 392.730469 525.253906 392.003906 C 524.382812 391.277344 523.566406 390.515625 522.800781 389.714844 C 522.039062 388.914062 521.335938 388.082031 520.6875 387.214844 C 520.042969 386.351562 519.457031 385.457031 518.933594 384.53125 C 518.410156 383.609375 517.953125 382.660156 517.558594 381.6875 C 517.164062 380.714844 516.832031 379.722656 516.570312 378.710938 C 516.304688 377.699219 516.109375 376.671875 515.980469 375.628906 C 515.851562 374.585938 515.789062 373.535156 515.796875 372.472656 C 515.800781 371.414062 515.875 370.347656 516.015625 369.273438 C 516.160156 368.203125 516.367188 367.132812 516.644531 366.0625 C 516.917969 364.992188 517.261719 363.925781 517.667969 362.867188 C 518.074219 361.808594 518.546875 360.761719 519.082031 359.722656 C 519.617188 358.683594 520.210938 357.664062 520.867188 356.65625 C 521.527344 355.648438 522.242188 354.664062 523.015625 353.699219 C 523.785156 352.730469 524.613281 351.792969 525.496094 350.875 C 526.378906 349.960938 527.308594 349.074219 528.292969 348.21875 C 529.273438 347.363281 530.300781 346.539062 531.371094 345.753906 C 532.445312 344.964844 533.558594 344.210938 534.710938 343.5 C 535.863281 342.785156 537.050781 342.113281 538.273438 341.480469 C 539.496094 340.847656 540.746094 340.257812 542.023438 339.714844 C 543.304688 339.171875 544.605469 338.675781 545.929688 338.222656 C 547.253906 337.773438 548.597656 337.371094 549.953125 337.015625 C 551.308594 336.664062 552.675781 336.359375 554.050781 336.109375 C 555.429688 335.855469 556.808594 335.65625 558.191406 335.503906 C 559.574219 335.355469 560.953125 335.261719 562.324219 335.214844 C 563.699219 335.171875 565.066406 335.179688 566.421875 335.242188 C 567.773438 335.300781 569.113281 335.414062 570.433594 335.578125 C 571.753906 335.746094 573.050781 335.960938 574.328125 336.230469 C 575.601562 336.5 576.847656 336.816406 578.0625 337.1875 C 579.277344 337.554688 580.460938 337.972656 581.605469 338.4375 C 582.75 338.90625 583.855469 339.417969 584.921875 339.976562 C 585.984375 340.535156 587.003906 341.136719 587.976562 341.78125 C 588.949219 342.425781 589.875 343.113281 590.746094 343.835938 C 591.617188 344.5625 592.433594 345.328125 593.199219 346.125 C 593.960938 346.925781 594.664062 347.757812 595.3125 348.625 C 595.957031 349.492188 596.542969 350.386719 597.066406 351.308594 C 597.589844 352.234375 598.046875 353.183594 598.441406 354.15625 C 598.839844 355.128906 599.167969 356.121094 599.429688 357.132812 Z M 599.429688 357.132812 " fill-opacity="1" fill-rule="nonzero"/><path fill="#631818" d="M 756.980469 530.109375 C 756.980469 531.167969 756.917969 532.222656 756.800781 533.277344 C 756.683594 534.332031 756.503906 535.378906 756.265625 536.414062 C 756.03125 537.453125 755.738281 538.480469 755.382812 539.492188 C 755.03125 540.507812 754.625 541.5 754.160156 542.480469 C 753.695312 543.457031 753.179688 544.414062 752.605469 545.347656 C 752.035156 546.28125 751.414062 547.1875 750.738281 548.066406 C 750.066406 548.949219 749.34375 549.796875 748.574219 550.617188 C 747.804688 551.433594 746.992188 552.21875 746.132812 552.964844 C 745.277344 553.714844 744.378906 554.425781 743.441406 555.097656 C 742.503906 555.769531 741.53125 556.398438 740.523438 556.988281 C 739.515625 557.574219 738.476562 558.117188 737.40625 558.617188 C 736.335938 559.117188 735.242188 559.566406 734.121094 559.972656 C 733 560.378906 731.859375 560.734375 730.699219 561.042969 C 729.539062 561.347656 728.363281 561.605469 727.175781 561.8125 C 725.984375 562.019531 724.785156 562.175781 723.578125 562.277344 C 722.371094 562.382812 721.164062 562.433594 719.949219 562.433594 C 718.738281 562.433594 717.527344 562.382812 716.320312 562.277344 C 715.113281 562.175781 713.914062 562.019531 712.726562 561.8125 C 711.535156 561.605469 710.363281 561.347656 709.203125 561.042969 C 708.042969 560.734375 706.902344 560.378906 705.78125 559.972656 C 704.660156 559.566406 703.566406 559.117188 702.496094 558.617188 C 701.425781 558.117188 700.386719 557.574219 699.378906 556.988281 C 698.371094 556.398438 697.398438 555.769531 696.460938 555.097656 C 695.523438 554.425781 694.625 553.714844 693.765625 552.964844 C 692.910156 552.21875 692.097656 551.433594 691.328125 550.617188 C 690.558594 549.796875 689.835938 548.949219 689.164062 548.066406 C 688.488281 547.1875 687.867188 546.28125 687.292969 545.347656 C 686.722656 544.414062 686.203125 543.457031 685.742188 542.480469 C 685.277344 541.5 684.867188 540.507812 684.515625 539.492188 C 684.164062 538.480469 683.871094 537.453125 683.632812 536.414062 C 683.398438 535.378906 683.21875 534.332031 683.101562 533.277344 C 682.980469 532.222656 682.921875 531.167969 682.921875 530.109375 C 682.921875 529.050781 682.980469 527.996094 683.101562 526.941406 C 683.21875 525.886719 683.398438 524.84375 683.632812 523.804688 C 683.871094 522.765625 684.164062 521.738281 684.515625 520.726562 C 684.867188 519.714844 685.277344 518.71875 685.742188 517.738281 C 686.203125 516.761719 686.722656 515.804688 687.292969 514.871094 C 687.867188 513.9375 688.488281 513.03125 689.164062 512.152344 C 689.835938 511.269531 690.558594 510.421875 691.328125 509.601562 C 692.097656 508.785156 692.910156 508 693.765625 507.253906 C 694.625 506.503906 695.523438 505.792969 696.460938 505.121094 C 697.398438 504.449219 698.371094 503.820312 699.378906 503.234375 C 700.386719 502.644531 701.425781 502.101562 702.496094 501.601562 C 703.566406 501.101562 704.660156 500.652344 705.78125 500.246094 C 706.902344 499.839844 708.042969 499.484375 709.203125 499.175781 C 710.363281 498.871094 711.535156 498.613281 712.726562 498.40625 C 713.914062 498.199219 715.113281 498.046875 716.320312 497.941406 C 717.527344 497.835938 718.738281 497.785156 719.949219 497.785156 C 721.164062 497.785156 722.371094 497.835938 723.578125 497.941406 C 724.785156 498.046875 725.984375 498.199219 727.175781 498.40625 C 728.363281 498.613281 729.539062 498.871094 730.699219 499.175781 C 731.859375 499.484375 733 499.839844 734.121094 500.246094 C 735.242188 500.652344 736.335938 501.101562 737.40625 501.601562 C 738.476562 502.101562 739.515625 502.644531 740.523438 503.234375 C 741.53125 503.820312 742.503906 504.449219 743.441406 505.121094 C 744.378906 505.792969 745.277344 506.503906 746.132812 507.253906 C 746.992188 508 747.804688 508.785156 748.574219 509.601562 C 749.34375 510.421875 750.066406 511.269531 750.738281 512.152344 C 751.414062 513.03125 752.035156 513.9375 752.605469 514.871094 C 753.179688 515.804688 753.695312 516.761719 754.160156 517.738281 C 754.625 518.71875 755.03125 519.714844 755.382812 520.726562 C 755.738281 521.738281 756.03125 522.765625 756.265625 523.804688 C 756.503906 524.84375 756.683594 525.886719 756.800781 526.941406 C 756.917969 527.996094 756.980469 529.050781 756.980469 530.109375 Z M 756.980469 530.109375 " fill-opacity="0.1" fill-rule="nonzero"/><path fill="#631818" d="M 681.664062 520.324219 C 681.664062 523.351562 682.097656 526.273438 682.980469 529.0625 C 683.609375 511.691406 699.898438 497.800781 719.949219 497.800781 C 740 497.800781 756.273438 511.691406 756.917969 529.0625 C 757.804688 526.289062 758.238281 523.351562 758.238281 520.324219 C 758.238281 501.890625 741.125 485.242188 719.949219 485.242188 C 698.792969 485.242188 681.664062 501.890625 681.664062 520.324219 Z M 681.664062 520.324219 " fill-opacity="1" fill-rule="nonzero"/><path fill="#631818" d="M 798.789062 649.847656 C 783.519531 659.242188 758.566406 668.292969 719.382812 668.292969 C 680.121094 668.292969 655.246094 659.242188 639.914062 649.847656 C 623.175781 639.609375 616.042969 618.617188 623.460938 600.40625 C 623.625 600.0625 623.804688 599.671875 623.910156 599.328125 C 627.417969 591.175781 633.574219 584.898438 640.933594 580.941406 C 650.269531 575.90625 661.644531 574.601562 672.386719 577.882812 C 678.949219 579.921875 685.558594 581.390625 691.671875 582.515625 C 710 585.902344 728.777344 585.902344 747.042969 582.515625 C 753.15625 581.375 759.765625 579.90625 766.328125 577.882812 C 777.074219 574.601562 788.507812 575.964844 797.828125 581 C 805.1875 584.898438 811.285156 591.175781 814.792969 599.328125 C 814.957031 599.671875 815.078125 600.0625 815.242188 600.40625 C 822.660156 618.628906 815.585938 639.609375 798.789062 649.847656 Z M 798.789062 649.847656 " fill-opacity="1" fill-rule="nonzero"/><path fill="#fd6c51" d="M 782.050781 658.058594 C 767.0625 663.949219 746.640625 668.292969 719.382812 668.292969 C 689.289062 668.292969 667.621094 662.972656 652.246094 656.246094 C 659.546875 644.644531 680.972656 618.914062 716.5625 640.972656 C 754.160156 617.671875 775.933594 647.703125 782.050781 658.058594 Z M 782.050781 658.058594 " fill-opacity="1" fill-rule="nonzero"/><path fill="#ffffff" d="M 797.828125 581.015625 C 786.800781 598.609375 755.855469 611.273438 719.382812 611.273438 C 682.847656 611.273438 651.84375 598.609375 640.933594 580.957031 C 650.269531 575.921875 661.644531 574.617188 672.386719 577.898438 C 678.949219 579.9375 685.558594 581.40625 691.671875 582.53125 C 710 585.917969 728.777344 585.917969 747.042969 582.53125 C 753.15625 581.390625 759.765625 579.921875 766.328125 577.898438 C 777.074219 574.617188 788.492188 575.980469 797.828125 581.015625 Z M 797.828125 581.015625 " fill-opacity="1" fill-rule="nonzero"/><path fill="#fdc250" d="M 971.132812 473.074219 L 996.441406 473.074219 C 1003.394531 473.074219 1009.03125 467.4375 1009.03125 460.484375 C 1009.03125 453.53125 1003.394531 447.898438 996.441406 447.898438 L 971.132812 447.898438 Z M 971.132812 473.074219 " fill-opacity="1" fill-rule="nonzero"/><path fill="#fdc250" d="M 468.769531 473.074219 L 443.457031 473.074219 C 436.503906 473.074219 430.871094 467.4375 430.871094 460.484375 C 430.871094 453.53125 436.503906 447.898438 443.457031 447.898438 L 468.769531 447.898438 Z M 468.769531 473.074219 " fill-opacity="1" fill-rule="nonzero"/><path fill="#fdc250" d="M 860.03125 581.734375 C 843.894531 581.734375 827.8125 578.257812 812.753906 571.261719 C 782.140625 557.039062 760.289062 529.960938 752.78125 496.945312 C 751.867188 492.929688 751.121094 488.75 750.550781 484.539062 C 747.359375 460.832031 758.550781 437.332031 779.097656 424.699219 C 811 405.054688 862.535156 383.234375 926.882812 390.953125 C 957.464844 394.609375 981.335938 417.28125 986.328125 447.375 L 986.492188 448.453125 C 988.066406 458.523438 987.285156 469.074219 984.183594 478.84375 C 976.675781 502.507812 957.449219 545.648438 913.035156 568.652344 C 896.238281 577.359375 878.105469 581.734375 860.03125 581.734375 Z M 900.523438 409.804688 C 853.125 409.804688 814.867188 426.679688 789.828125 442.097656 C 776.160156 450.503906 768.699219 466.089844 770.824219 481.8125 C 771.304688 485.421875 771.949219 488.988281 772.726562 492.421875 C 778.8125 519.214844 796.539062 541.199219 821.371094 552.738281 C 847.503906 564.875 877.503906 564.066406 903.667969 550.519531 C 941.535156 530.902344 958.183594 493.320312 964.734375 472.667969 C 966.875 465.894531 967.429688 458.582031 966.320312 451.539062 L 966.1875 450.699219 C 962.710938 429.660156 945.941406 413.804688 924.484375 411.242188 C 916.257812 410.253906 908.253906 409.804688 900.523438 409.804688 Z M 900.523438 409.804688 " fill-opacity="1" fill-rule="nonzero"/><path fill="#fdc250" d="M 579.824219 581.734375 C 561.75 581.734375 543.621094 577.359375 526.804688 568.652344 C 482.390625 545.648438 463.164062 502.519531 455.65625 478.84375 C 452.554688 469.085938 451.761719 458.539062 453.363281 448.363281 L 453.527344 447.3125 C 458.488281 417.265625 482.375 394.59375 512.960938 390.953125 C 577.292969 383.25 628.839844 405.070312 660.742188 424.699219 C 681.289062 437.332031 692.484375 460.816406 689.289062 484.554688 C 688.722656 488.765625 687.972656 492.929688 687.058594 496.945312 C 679.566406 529.960938 657.703125 557.054688 627.085938 571.261719 C 612.042969 578.242188 595.949219 581.734375 579.824219 581.734375 Z M 539.332031 409.804688 C 531.585938 409.804688 523.597656 410.253906 515.386719 411.226562 C 493.914062 413.804688 477.160156 429.644531 473.683594 450.683594 L 473.5625 451.433594 C 472.441406 458.582031 472.996094 465.894531 475.136719 472.65625 C 481.6875 493.304688 498.335938 530.890625 536.203125 550.503906 C 562.351562 564.039062 592.335938 564.863281 618.484375 552.722656 C 643.316406 541.183594 661.058594 519.214844 667.128906 492.421875 C 667.90625 488.988281 668.550781 485.421875 669.03125 481.8125 C 671.144531 466.089844 663.679688 450.503906 650.015625 442.097656 C 624.988281 426.679688 586.71875 409.804688 539.332031 409.804688 Z M 539.332031 409.804688 " fill-opacity="1" fill-rule="nonzero"/><path fill="#fdc250" d="M 757.039062 492.71875 C 733.105469 483.550781 706.75 483.5625 682.816406 492.71875 L 675.503906 473.628906 C 704.15625 462.671875 735.683594 462.671875 764.335938 473.628906 Z M 757.039062 492.71875 " fill-opacity="1" fill-rule="nonzero"/></svg>