<svg xmlns="http://www.w3.org/2000/svg" xmlns:xlink="http://www.w3.org/1999/xlink" width="1920" zoomAndPan="magnify" viewBox="0 0 1440 809.999993" height="1080" preserveAspectRatio="xMidYMid meet" version="1.0"><path fill="#732c65" d="M 1063.585938 309.847656 L 1010.703125 277.113281 L 1011.96875 342.207031 L 1013.613281 428.28125 C 1013.613281 428.28125 727.195312 352.699219 629.402344 161.585938 C 629.402344 161.585938 665.457031 151.222656 714.289062 138.582031 C 783.363281 120.507812 877.996094 97.632812 933.027344 92.070312 C 933.027344 92.070312 995.269531 81.199219 1024.621094 129.105469 C 1024.621094 129.105469 1070.417969 212.019531 1094.074219 291.269531 C 1093.820312 291.523438 1102.296875 322.617188 1063.585938 309.847656 Z M 1063.585938 309.847656 " fill-opacity="1" fill-rule="nonzero"/><path fill="#040001" d="M 1013.488281 428.535156 C 1013.488281 428.535156 727.066406 352.949219 629.273438 161.839844 C 629.273438 161.839844 665.332031 151.476562 714.164062 138.835938 C 748.320312 186.613281 866.609375 336.011719 1011.96875 342.460938 Z M 1013.488281 428.535156 " fill-opacity="0.2" fill-rule="nonzero"/><path fill="#040001" d="M 1010.578125 277.238281 L 981.734375 260.808594 C 978.824219 259.164062 975.28125 260.175781 973.761719 263.210938 C 972.371094 265.863281 973.511719 269.277344 976.167969 270.792969 L 1010.832031 290.003906 Z M 1010.578125 277.238281 " fill-opacity="1" fill-rule="nonzero"/><path fill="#c1bf51" d="M 736.175781 286.84375 C 735.289062 286.84375 734.40625 286.84375 733.644531 286.71875 C 725.675781 285.960938 718.464844 282.296875 713.277344 276.226562 L 651.160156 202.414062 C 640.660156 189.773438 642.179688 170.941406 654.832031 160.195312 L 682.410156 137.066406 C 688.609375 131.882812 696.324219 129.484375 704.296875 130.113281 C 712.265625 130.875 719.476562 134.539062 724.664062 140.605469 L 786.78125 214.421875 C 791.96875 220.613281 794.371094 228.324219 793.738281 236.289062 C 792.980469 244.25 789.3125 251.453125 783.238281 256.636719 L 755.660156 279.765625 C 749.839844 284.445312 743.261719 286.84375 736.175781 286.84375 Z M 701.640625 143.261719 C 697.71875 143.261719 693.921875 144.648438 690.886719 147.179688 L 663.304688 170.308594 C 656.222656 176.121094 655.335938 186.738281 661.410156 193.691406 L 723.523438 267.507812 C 726.433594 270.917969 730.484375 272.941406 734.785156 273.320312 C 739.210938 273.828125 743.515625 272.4375 746.804688 269.527344 L 774.382812 246.398438 C 781.46875 240.585938 782.351562 229.96875 776.28125 223.015625 L 714.164062 149.199219 C 711.253906 145.789062 707.207031 143.765625 702.902344 143.386719 C 702.652344 143.261719 702.273438 143.261719 701.640625 143.261719 Z M 701.640625 143.261719 " fill-opacity="1" fill-rule="nonzero"/><path fill="#c1bf51" d="M 770.207031 275.976562 C 768.308594 275.976562 766.414062 275.21875 765.019531 273.574219 L 737.316406 240.585938 C 734.910156 237.675781 735.417969 233.507812 738.074219 231.230469 C 740.984375 228.828125 745.160156 229.335938 747.4375 231.988281 L 775.140625 264.980469 C 777.546875 267.886719 777.039062 272.058594 774.382812 274.332031 C 773.242188 275.46875 771.726562 275.976562 770.207031 275.976562 Z M 770.207031 275.976562 " fill-opacity="1" fill-rule="nonzero"/><path fill="#a73a6a" d="M 415.21875 526.617188 C 415.21875 526.617188 348.800781 550.761719 341.335938 603.59375 C 338.046875 626.976562 355.632812 648.714844 379.289062 648.210938 C 385.488281 648.085938 392.449219 646.695312 399.910156 643.785156 C 399.910156 643.785156 378.53125 671.972656 394.09375 695.105469 C 402.695312 707.996094 419.394531 712.671875 434.195312 707.871094 C 450.769531 702.5625 470.632812 688.277344 467.089844 650.359375 C 467.089844 650.359375 467.089844 664.769531 481.132812 674.121094 C 497.199219 684.867188 519.210938 678.796875 529.332031 662.242188 C 542.742188 640.121094 552.734375 597.90625 510.230469 530.789062 Z M 415.21875 526.617188 " fill-opacity="1" fill-rule="nonzero"/><path fill="#a73a6a" d="M 795.382812 603.214844 C 795.382812 603.214844 778.304688 648.085938 781.085938 680.566406 C 782.859375 702.054688 804.113281 716.96875 824.480469 710.269531 C 834.980469 706.859375 846.492188 698.769531 852.1875 681.328125 C 852.1875 681.328125 856.613281 703.445312 874.832031 716.085938 C 903.171875 735.550781 940.363281 711.15625 935.175781 677.28125 C 933.914062 669.570312 931.253906 660.976562 925.941406 651.875 C 925.941406 651.875 942.769531 661.484375 962.378906 661.863281 C 992.992188 662.367188 1013.234375 629.503906 999.699219 602.078125 C 988.945312 579.957031 961.996094 552.53125 895.832031 537.234375 Z M 795.382812 603.214844 " fill-opacity="1" fill-rule="nonzero"/><path fill="#040001" d="M 1009.1875 560.746094 C 972.5 568.835938 915.441406 565.296875 826.25 533.949219 C 783.238281 518.90625 732.761719 497.292969 673.554688 467.339844 C 673.554688 467.339844 573.359375 417.285156 467.847656 275.46875 C 461.773438 267.378906 456.589844 258.660156 452.285156 249.304688 C 449.378906 242.984375 446.972656 236.539062 445.203125 229.839844 C 439.636719 208.859375 438.117188 181.8125 455.195312 158.554688 C 465.695312 144.269531 481.511719 134.917969 498.714844 130.875 C 535.152344 122.277344 616.75 116.210938 699.488281 199.253906 C 707.207031 206.964844 714.921875 215.304688 722.386719 224.660156 C 726.941406 230.09375 730.988281 235.65625 735.164062 241.214844 C 748.320312 258.785156 809.300781 335.003906 905.953125 358.257812 C 912.785156 359.902344 919.488281 360.914062 926.449219 362.050781 C 931.128906 362.808594 938.085938 363.945312 946.4375 365.96875 C 981.605469 374.4375 1042.207031 396.683594 1064.851562 453.5625 C 1083.320312 498.9375 1056.5 550.253906 1009.1875 560.746094 Z M 1009.1875 560.746094 " fill-opacity="1" fill-rule="nonzero"/><path fill="#a73a6a" d="M 940.238281 512.082031 L 826.125 533.824219 L 599.417969 577.050781 L 408.765625 445.726562 C 408.765625 445.726562 402.695312 391.628906 419.140625 353.203125 C 419.140625 353.203125 396.242188 329.441406 415.726562 288.996094 C 423.695312 272.4375 436.472656 258.910156 452.035156 249.179688 C 458.867188 245.007812 466.203125 241.46875 473.792969 238.941406 C 499.855469 230.09375 536.921875 225.039062 572.09375 247.410156 C 572.09375 247.410156 619.40625 203.171875 699.488281 199.378906 C 707.207031 207.089844 714.921875 215.433594 722.386719 224.785156 C 726.941406 230.21875 730.988281 235.78125 735.164062 241.34375 C 748.320312 258.910156 809.300781 335.128906 905.953125 358.386719 C 912.785156 360.027344 919.488281 361.039062 926.449219 362.175781 C 931.128906 362.9375 938.085938 364.074219 946.4375 366.09375 C 946.308594 371.402344 945.425781 376.460938 943.402344 381.515625 C 943.78125 381.515625 950.863281 460.386719 940.238281 512.082031 Z M 940.238281 512.082031 " fill-opacity="1" fill-rule="nonzero"/><path fill="#c1bf51" d="M 835.488281 496.410156 C 835.488281 496.410156 895.328125 420.824219 949.601562 453.433594 C 973.382812 467.71875 984.515625 496.789062 977.304688 523.585938 C 968.828125 555.5625 937.328125 591.710938 832.199219 568.203125 Z M 835.488281 496.410156 " fill-opacity="1" fill-rule="nonzero"/><path fill="#040001" d="M 938.847656 542.417969 C 937.835938 542.542969 936.570312 542.292969 935.683594 541.53125 L 879.511719 495.398438 C 877.742188 493.882812 877.363281 491.226562 878.878906 489.203125 C 880.398438 487.433594 883.054688 487.054688 885.078125 488.574219 L 941.25 534.707031 C 943.019531 536.222656 943.402344 538.878906 941.882812 540.902344 C 940.996094 541.785156 939.984375 542.164062 938.847656 542.417969 Z M 938.847656 542.417969 " fill-opacity="1" fill-rule="nonzero"/><path fill="#040001" d="M 887.609375 547.472656 C 886.597656 547.601562 885.332031 547.347656 884.445312 546.589844 C 882.675781 545.070312 882.296875 542.417969 883.8125 540.394531 L 929.992188 484.277344 C 931.507812 482.507812 934.164062 482.125 936.191406 483.644531 C 938.085938 485.160156 938.339844 487.816406 936.820312 489.835938 L 890.644531 545.957031 C 889.761719 546.714844 888.75 547.347656 887.609375 547.472656 Z M 887.609375 547.472656 " fill-opacity="1" fill-rule="nonzero"/><path fill="#c1bf51" d="M 480.121094 481.496094 C 480.121094 481.496094 431.539062 407.300781 379.039062 432.832031 C 356.140625 443.957031 343.488281 469.613281 347.789062 494.765625 C 352.976562 524.722656 378.785156 560.367188 477.082031 547.472656 Z M 480.121094 481.496094 " fill-opacity="1" fill-rule="nonzero"/><path fill="#040001" d="M 383.589844 517.519531 C 382.578125 517.519531 381.441406 517.011719 380.683594 516.128906 C 379.164062 514.484375 379.289062 511.957031 380.933594 510.441406 L 426.859375 468.476562 C 428.503906 466.960938 431.03125 467.085938 432.550781 468.730469 C 434.070312 470.371094 433.941406 472.898438 432.296875 474.417969 L 386.375 516.378906 C 385.742188 517.265625 384.730469 517.519531 383.589844 517.519531 Z M 383.589844 517.519531 " fill-opacity="1" fill-rule="nonzero"/><path fill="#040001" d="M 427.617188 519.539062 C 426.605469 519.539062 425.464844 519.035156 424.707031 518.148438 L 382.707031 472.269531 C 381.1875 470.625 381.316406 468.097656 382.960938 466.582031 C 384.605469 465.0625 387.132812 465.191406 388.652344 466.832031 L 430.652344 512.714844 C 432.171875 514.359375 432.046875 516.886719 430.402344 518.402344 C 429.640625 519.160156 428.503906 519.539062 427.617188 519.539062 Z M 427.617188 519.539062 " fill-opacity="1" fill-rule="nonzero"/><path fill="#c1bf51" d="M 858.132812 433.210938 L 852.820312 552.148438 C 851.425781 580.714844 836.5 607.257812 811.957031 621.921875 C 741.742188 663.882812 608.527344 656.679688 608.527344 656.679688 C 430.402344 648.714844 446.46875 560.617188 446.46875 560.617188 C 452.917969 497.925781 452.917969 433.085938 452.917969 433.085938 C 449.503906 365.464844 484.671875 327.925781 519.085938 307.828125 C 545.144531 292.40625 575.003906 284.695312 605.238281 284.316406 C 707.078125 283.054688 770.082031 307.320312 807.90625 332.855469 C 836.246094 351.8125 854.085938 382.527344 857.5 416.023438 C 858.132812 421.457031 858.386719 427.269531 858.132812 433.210938 Z M 858.132812 433.210938 " fill-opacity="1" fill-rule="nonzero"/><path fill="#040001" d="M 857.5 415.769531 C 796.394531 427.777344 748.574219 399.085938 748.574219 399.085938 C 738.582031 426.386719 695.945312 424.109375 695.945312 424.109375 C 599.925781 421.960938 565.765625 331.96875 565.765625 331.96875 C 463.292969 340.3125 452.917969 433.210938 452.917969 433.210938 C 449.503906 365.589844 484.671875 328.050781 519.085938 307.953125 C 545.144531 292.535156 575.003906 284.824219 605.238281 284.445312 C 707.078125 283.179688 770.082031 307.449219 807.90625 332.980469 C 836.246094 351.6875 854.085938 382.273438 857.5 415.769531 Z M 857.5 415.769531 " fill-opacity="0.15" fill-rule="nonzero"/><path fill="#a73a6a" d="M 452.792969 433.085938 C 452.792969 433.085938 442.546875 316.546875 578.164062 306.941406 C 578.164062 306.941406 609.539062 408.3125 705.8125 405.53125 C 721.25 405.027344 732.382812 390.871094 729.21875 375.953125 C 728.332031 371.910156 726.941406 367.484375 724.789062 362.808594 C 724.789062 362.808594 774.382812 408.4375 866.355469 396.9375 C 866.355469 396.9375 824.480469 252.71875 568.675781 260.050781 C 568.550781 260.175781 422.175781 278.375 452.792969 433.085938 Z M 452.792969 433.085938 " fill-opacity="1" fill-rule="nonzero"/><path fill="#040001" d="M 523.085938 439.652344 C 524.117188 439.714844 525.144531 439.84375 526.167969 440.03125 C 527.1875 440.222656 528.195312 440.46875 529.195312 440.777344 C 530.191406 441.085938 531.175781 441.457031 532.140625 441.882812 C 533.105469 442.308594 534.050781 442.792969 534.976562 443.332031 C 535.902344 443.871094 536.800781 444.46875 537.675781 445.117188 C 538.546875 445.761719 539.394531 446.464844 540.207031 447.214844 C 541.023438 447.964844 541.804688 448.761719 542.550781 449.605469 C 543.300781 450.453125 544.011719 451.339844 544.6875 452.273438 C 545.359375 453.203125 545.996094 454.175781 546.589844 455.183594 C 547.183594 456.195312 547.734375 457.238281 548.242188 458.316406 C 548.75 459.394531 549.210938 460.5 549.628906 461.632812 C 550.042969 462.769531 550.414062 463.929688 550.734375 465.109375 C 551.054688 466.292969 551.328125 467.492188 551.550781 468.707031 C 551.773438 469.925781 551.949219 471.152344 552.070312 472.394531 C 552.195312 473.636719 552.265625 474.882812 552.289062 476.132812 C 552.308594 477.386719 552.28125 478.636719 552.199219 479.890625 C 552.121094 481.140625 551.988281 482.386719 551.808594 483.625 C 551.625 484.867188 551.394531 486.09375 551.117188 487.308594 C 550.835938 488.523438 550.507812 489.71875 550.128906 490.898438 C 549.753906 492.078125 549.328125 493.230469 548.859375 494.363281 C 548.390625 495.496094 547.875 496.597656 547.320312 497.667969 C 546.761719 498.742188 546.160156 499.78125 545.519531 500.785156 C 544.878906 501.789062 544.199219 502.753906 543.480469 503.679688 C 542.765625 504.605469 542.011719 505.488281 541.222656 506.324219 C 540.4375 507.164062 539.617188 507.953125 538.765625 508.699219 C 537.917969 509.441406 537.039062 510.132812 536.136719 510.773438 C 535.230469 511.414062 534.304688 512 533.355469 512.53125 C 532.40625 513.0625 531.4375 513.539062 530.453125 513.957031 C 529.46875 514.375 528.46875 514.734375 527.457031 515.035156 C 526.441406 515.332031 525.421875 515.574219 524.390625 515.753906 C 523.363281 515.933594 522.328125 516.050781 521.292969 516.105469 C 520.257812 516.164062 519.222656 516.160156 518.1875 516.09375 C 517.152344 516.027344 516.125 515.898438 515.105469 515.710938 C 514.085938 515.523438 513.074219 515.273438 512.078125 514.964844 C 511.078125 514.65625 510.097656 514.289062 509.128906 513.863281 C 508.164062 513.433594 507.21875 512.953125 506.292969 512.410156 C 505.371094 511.871094 504.472656 511.277344 503.597656 510.628906 C 502.722656 509.980469 501.878906 509.28125 501.0625 508.53125 C 500.25 507.78125 499.46875 506.980469 498.71875 506.136719 C 497.96875 505.292969 497.257812 504.402344 496.585938 503.472656 C 495.910156 502.539062 495.277344 501.570312 494.683594 500.558594 C 494.089844 499.550781 493.539062 498.507812 493.03125 497.429688 C 492.523438 496.351562 492.0625 495.246094 491.644531 494.109375 C 491.226562 492.972656 490.859375 491.816406 490.535156 490.632812 C 490.214844 489.453125 489.941406 488.253906 489.71875 487.035156 C 489.496094 485.820312 489.324219 484.589844 489.199219 483.347656 C 489.078125 482.109375 489.003906 480.863281 488.984375 479.609375 C 488.960938 478.355469 488.992188 477.105469 489.070312 475.855469 C 489.152344 474.601562 489.28125 473.355469 489.464844 472.117188 C 489.644531 470.878906 489.875 469.652344 490.15625 468.4375 C 490.4375 467.222656 490.765625 466.023438 491.140625 464.84375 C 491.519531 463.667969 491.941406 462.511719 492.410156 461.378906 C 492.878906 460.25 493.394531 459.148438 493.953125 458.074219 C 494.511719 457 495.109375 455.964844 495.75 454.960938 C 496.390625 453.957031 497.070312 452.988281 497.789062 452.066406 C 498.507812 451.140625 499.261719 450.257812 500.046875 449.417969 C 500.835938 448.578125 501.652344 447.789062 502.503906 447.046875 C 503.355469 446.304688 504.230469 445.609375 505.136719 444.972656 C 506.039062 444.332031 506.964844 443.746094 507.914062 443.210938 C 508.863281 442.679688 509.832031 442.207031 510.820312 441.789062 C 511.804688 441.371094 512.804688 441.011719 513.816406 440.710938 C 514.828125 440.410156 515.847656 440.171875 516.878906 439.992188 C 517.910156 439.8125 518.941406 439.695312 519.976562 439.636719 C 521.015625 439.578125 522.050781 439.585938 523.085938 439.652344 Z M 523.085938 439.652344 " fill-opacity="1" fill-rule="nonzero"/><path fill="#040001" d="M 716.605469 440.476562 C 718.003906 440.570312 719.394531 440.742188 720.773438 441 C 722.152344 441.257812 723.515625 441.597656 724.863281 442.015625 C 726.214844 442.433594 727.539062 442.933594 728.84375 443.511719 C 730.148438 444.089844 731.425781 444.742188 732.675781 445.472656 C 733.921875 446.203125 735.136719 447.007812 736.316406 447.882812 C 737.496094 448.761719 738.636719 449.703125 739.734375 450.71875 C 740.835938 451.730469 741.890625 452.808594 742.898438 453.949219 C 743.910156 455.089844 744.867188 456.289062 745.777344 457.546875 C 746.6875 458.800781 747.539062 460.113281 748.339844 461.472656 C 749.140625 462.835938 749.882812 464.242188 750.566406 465.695312 C 751.25 467.148438 751.871094 468.636719 752.429688 470.167969 C 752.992188 471.699219 753.488281 473.257812 753.917969 474.851562 C 754.351562 476.445312 754.714844 478.058594 755.011719 479.699219 C 755.3125 481.339844 755.542969 482.992188 755.707031 484.664062 C 755.867188 486.335938 755.964844 488.015625 755.988281 489.699219 C 756.015625 491.386719 755.972656 493.070312 755.859375 494.757812 C 755.746094 496.441406 755.566406 498.121094 755.320312 499.789062 C 755.070312 501.457031 754.757812 503.105469 754.375 504.742188 C 753.992188 506.375 753.542969 507.988281 753.03125 509.574219 C 752.519531 511.160156 751.945312 512.710938 751.304688 514.234375 C 750.667969 515.753906 749.96875 517.238281 749.210938 518.679688 C 748.457031 520.121094 747.640625 521.519531 746.773438 522.867188 C 745.902344 524.21875 744.980469 525.515625 744.007812 526.757812 C 743.035156 528.003906 742.015625 529.1875 740.949219 530.316406 C 739.882812 531.441406 738.773438 532.503906 737.621094 533.5 C 736.472656 534.5 735.28125 535.425781 734.058594 536.285156 C 732.835938 537.144531 731.582031 537.929688 730.296875 538.644531 C 729.011719 539.355469 727.699219 539.992188 726.367188 540.550781 C 725.035156 541.113281 723.683594 541.59375 722.3125 541.992188 C 720.941406 542.394531 719.5625 542.710938 718.167969 542.949219 C 716.777344 543.1875 715.378906 543.34375 713.976562 543.417969 C 712.578125 543.492188 711.175781 543.480469 709.78125 543.386719 C 708.382812 543.296875 706.992188 543.121094 705.613281 542.863281 C 704.234375 542.605469 702.871094 542.269531 701.519531 541.847656 C 700.171875 541.429688 698.847656 540.929688 697.542969 540.351562 C 696.238281 539.773438 694.960938 539.121094 693.710938 538.390625 C 692.464844 537.660156 691.25 536.855469 690.070312 535.980469 C 688.890625 535.105469 687.75 534.160156 686.652344 533.148438 C 685.550781 532.132812 684.496094 531.054688 683.488281 529.914062 C 682.476562 528.773438 681.519531 527.578125 680.609375 526.320312 C 679.699219 525.0625 678.847656 523.753906 678.046875 522.390625 C 677.246094 521.03125 676.503906 519.621094 675.820312 518.171875 C 675.136719 516.71875 674.515625 515.226562 673.957031 513.695312 C 673.394531 512.167969 672.898438 510.605469 672.46875 509.011719 C 672.035156 507.421875 671.671875 505.804688 671.375 504.164062 C 671.074219 502.527344 670.84375 500.871094 670.679688 499.199219 C 670.519531 497.527344 670.421875 495.851562 670.398438 494.164062 C 670.371094 492.476562 670.414062 490.792969 670.527344 489.105469 C 670.636719 487.421875 670.820312 485.746094 671.066406 484.078125 C 671.316406 482.410156 671.628906 480.757812 672.011719 479.121094 C 672.394531 477.488281 672.84375 475.878906 673.355469 474.292969 C 673.867188 472.707031 674.441406 471.152344 675.082031 469.628906 C 675.71875 468.109375 676.417969 466.625 677.175781 465.183594 C 677.929688 463.742188 678.746094 462.34375 679.613281 460.996094 C 680.484375 459.644531 681.402344 458.347656 682.378906 457.105469 C 683.351562 455.859375 684.371094 454.675781 685.4375 453.550781 C 686.503906 452.421875 687.613281 451.359375 688.765625 450.363281 C 689.914062 449.367188 691.101562 448.4375 692.328125 447.578125 C 693.550781 446.71875 694.804688 445.933594 696.089844 445.21875 C 697.375 444.507812 698.683594 443.871094 700.019531 443.3125 C 701.351562 442.753906 702.703125 442.273438 704.074219 441.871094 C 705.445312 441.472656 706.824219 441.152344 708.21875 440.914062 C 709.609375 440.675781 711.007812 440.519531 712.410156 440.445312 C 713.808594 440.375 715.210938 440.382812 716.605469 440.476562 Z M 716.605469 440.476562 " fill-opacity="1" fill-rule="nonzero"/><path fill="#ffffff" d="M 723.019531 476.566406 C 723.019531 477.167969 722.988281 477.773438 722.929688 478.375 C 722.871094 478.976562 722.78125 479.574219 722.664062 480.164062 C 722.546875 480.757812 722.398438 481.34375 722.222656 481.921875 C 722.046875 482.5 721.84375 483.070312 721.613281 483.628906 C 721.382812 484.1875 721.125 484.730469 720.839844 485.265625 C 720.554688 485.796875 720.242188 486.316406 719.90625 486.816406 C 719.570312 487.320312 719.210938 487.804688 718.828125 488.273438 C 718.441406 488.738281 718.039062 489.1875 717.609375 489.613281 C 717.183594 490.042969 716.734375 490.445312 716.265625 490.832031 C 715.796875 491.214844 715.3125 491.574219 714.808594 491.910156 C 714.308594 492.246094 713.789062 492.554688 713.253906 492.839844 C 712.722656 493.125 712.175781 493.382812 711.617188 493.613281 C 711.058594 493.847656 710.488281 494.050781 709.910156 494.226562 C 709.332031 494.398438 708.746094 494.546875 708.152344 494.664062 C 707.558594 494.78125 706.960938 494.871094 706.359375 494.929688 C 705.757812 494.988281 705.152344 495.019531 704.546875 495.019531 C 703.945312 495.019531 703.339844 494.988281 702.738281 494.929688 C 702.136719 494.871094 701.539062 494.78125 700.945312 494.664062 C 700.351562 494.546875 699.765625 494.398438 699.1875 494.226562 C 698.609375 494.050781 698.039062 493.847656 697.480469 493.613281 C 696.921875 493.382812 696.375 493.125 695.84375 492.839844 C 695.308594 492.554688 694.789062 492.246094 694.285156 491.910156 C 693.785156 491.574219 693.296875 491.214844 692.832031 490.832031 C 692.363281 490.445312 691.914062 490.042969 691.488281 489.613281 C 691.058594 489.1875 690.65625 488.738281 690.269531 488.273438 C 689.886719 487.804688 689.527344 487.320312 689.191406 486.816406 C 688.855469 486.316406 688.542969 485.796875 688.257812 485.265625 C 687.972656 484.730469 687.714844 484.1875 687.484375 483.628906 C 687.253906 483.070312 687.050781 482.5 686.875 481.921875 C 686.699219 481.34375 686.550781 480.757812 686.433594 480.164062 C 686.316406 479.574219 686.226562 478.976562 686.167969 478.375 C 686.109375 477.773438 686.078125 477.167969 686.078125 476.566406 C 686.078125 475.960938 686.109375 475.359375 686.167969 474.757812 C 686.226562 474.15625 686.316406 473.558594 686.433594 472.964844 C 686.550781 472.371094 686.699219 471.785156 686.875 471.207031 C 687.050781 470.628906 687.253906 470.0625 687.484375 469.503906 C 687.714844 468.945312 687.972656 468.398438 688.257812 467.867188 C 688.542969 467.332031 688.855469 466.816406 689.191406 466.3125 C 689.527344 465.8125 689.886719 465.324219 690.269531 464.859375 C 690.65625 464.390625 691.058594 463.945312 691.488281 463.515625 C 691.914062 463.089844 692.363281 462.683594 692.832031 462.300781 C 693.296875 461.917969 693.785156 461.558594 694.285156 461.222656 C 694.789062 460.886719 695.308594 460.574219 695.84375 460.289062 C 696.375 460.003906 696.921875 459.746094 697.480469 459.515625 C 698.039062 459.285156 698.609375 459.082031 699.1875 458.90625 C 699.765625 458.730469 700.351562 458.585938 700.945312 458.464844 C 701.539062 458.347656 702.136719 458.261719 702.738281 458.199219 C 703.339844 458.140625 703.945312 458.113281 704.546875 458.113281 C 705.152344 458.113281 705.757812 458.140625 706.359375 458.199219 C 706.960938 458.261719 707.558594 458.347656 708.152344 458.464844 C 708.746094 458.585938 709.332031 458.730469 709.910156 458.90625 C 710.488281 459.082031 711.058594 459.285156 711.617188 459.515625 C 712.175781 459.746094 712.722656 460.003906 713.253906 460.289062 C 713.789062 460.574219 714.308594 460.886719 714.808594 461.222656 C 715.3125 461.558594 715.796875 461.917969 716.265625 462.300781 C 716.734375 462.683594 717.183594 463.089844 717.609375 463.515625 C 718.039062 463.945312 718.441406 464.390625 718.828125 464.859375 C 719.210938 465.324219 719.570312 465.808594 719.90625 466.3125 C 720.242188 466.816406 720.554688 467.332031 720.839844 467.867188 C 721.125 468.398438 721.382812 468.945312 721.613281 469.503906 C 721.84375 470.0625 722.046875 470.628906 722.222656 471.207031 C 722.398438 471.785156 722.546875 472.371094 722.664062 472.964844 C 722.78125 473.558594 722.871094 474.15625 722.929688 474.757812 C 722.988281 475.359375 723.019531 475.960938 723.019531 476.566406 Z M 723.019531 476.566406 " fill-opacity="1" fill-rule="nonzero"/><path fill="#040001" d="M 617.257812 518.277344 C 617.257812 518.402344 617.257812 518.527344 617.257812 518.78125 C 613.585938 510.1875 603.972656 503.867188 592.714844 503.234375 C 577.660156 502.601562 565.007812 512.210938 564.375 525.101562 C 564.375 525.734375 564.375 526.492188 564.375 526.996094 C 562.476562 523.585938 561.339844 519.792969 561.464844 515.75 C 562.097656 502.980469 575.003906 493.125 590.4375 493.882812 C 605.871094 494.640625 617.761719 505.511719 617.257812 518.277344 Z M 617.257812 518.277344 " fill-opacity="1" fill-rule="nonzero"/><path fill="#040001" d="M 653.3125 616.863281 C 628.390625 624.449219 601.824219 624.195312 577.40625 615.222656 C 572.851562 613.578125 568.171875 611.429688 563.488281 609.027344 C 547.042969 600.179688 542.109375 580.460938 553.75 565.800781 C 555.140625 564.03125 556.910156 562.386719 558.933594 560.996094 C 563.109375 557.839844 568.550781 555.5625 576.015625 554.929688 C 579.429688 554.679688 582.972656 555.058594 586.386719 556.195312 C 596.761719 559.226562 624.972656 565.167969 649.390625 549.371094 C 649.390625 549.371094 659.890625 541.28125 672.921875 543.050781 C 673.679688 543.175781 674.4375 543.300781 675.199219 543.554688 C 686.835938 546.082031 694.808594 556.449219 695.820312 568.203125 C 696.957031 582.613281 691.898438 604.984375 653.3125 616.863281 Z M 653.3125 616.863281 " fill-opacity="1" fill-rule="nonzero"/><path fill="#ffffff" d="M 672.921875 542.796875 C 671.148438 566.304688 642.9375 583.875 609.285156 582.359375 C 587.90625 581.472656 569.4375 572.878906 558.933594 560.871094 C 563.109375 557.710938 568.550781 555.4375 576.015625 554.804688 C 579.429688 554.550781 582.972656 554.929688 586.386719 556.070312 C 596.761719 559.101562 624.972656 565.042969 649.390625 549.242188 C 649.265625 549.117188 659.765625 541.152344 672.921875 542.796875 Z M 672.921875 542.796875 " fill-opacity="1" fill-rule="nonzero"/><path fill="#a73a6a" d="M 682.789062 601.191406 C 676.335938 607.257812 666.976562 612.695312 653.1875 616.863281 C 628.261719 624.449219 601.695312 624.195312 577.277344 615.222656 C 577.277344 615.222656 595.875 583.242188 625.101562 603.972656 C 625.101562 603.972656 644.710938 568.707031 682.789062 601.191406 Z M 682.789062 601.191406 " fill-opacity="1" fill-rule="nonzero"/><path fill="#040001" d="M 748.320312 430.429688 C 741.363281 426.261719 733.898438 424.363281 727.574219 423.859375 C 719.476562 423.101562 713.53125 415.894531 714.417969 407.933594 C 715.300781 399.589844 723.144531 393.777344 731.496094 395.417969 C 740.476562 397.1875 752.496094 401.234375 763.503906 410.585938 C 768.4375 414.757812 769.195312 422.214844 765.273438 427.398438 C 761.226562 432.707031 754.015625 433.96875 748.320312 430.429688 Z M 748.320312 430.429688 " fill-opacity="1" fill-rule="nonzero"/><path fill="#040001" d="M 503.902344 422.214844 C 509.976562 418.296875 516.554688 416.652344 522.121094 416.023438 C 529.207031 415.261719 534.390625 408.816406 533.378906 401.738281 C 532.367188 394.535156 525.410156 389.480469 518.324219 390.996094 C 510.355469 392.640625 500.109375 396.558594 490.492188 405.027344 C 486.316406 408.816406 485.6875 415.390625 489.226562 419.941406 C 492.644531 424.492188 499.097656 425.375 503.902344 422.214844 Z M 503.902344 422.214844 " fill-opacity="1" fill-rule="nonzero"/><path fill="#ffffff" d="M 545.019531 465.695312 C 545.019531 466.582031 544.933594 467.464844 544.757812 468.332031 C 544.585938 469.203125 544.328125 470.050781 543.988281 470.871094 C 543.648438 471.691406 543.230469 472.472656 542.738281 473.210938 C 542.242188 473.949219 541.683594 474.628906 541.054688 475.257812 C 540.425781 475.886719 539.742188 476.445312 539.003906 476.941406 C 538.265625 477.433594 537.484375 477.851562 536.664062 478.191406 C 535.839844 478.53125 534.996094 478.785156 534.125 478.960938 C 533.25 479.132812 532.371094 479.21875 531.484375 479.21875 C 530.59375 479.21875 529.714844 479.132812 528.839844 478.960938 C 527.96875 478.785156 527.125 478.53125 526.300781 478.191406 C 525.480469 477.851562 524.699219 477.433594 523.960938 476.941406 C 523.222656 476.445312 522.539062 475.886719 521.910156 475.257812 C 521.28125 474.628906 520.722656 473.949219 520.226562 473.210938 C 519.734375 472.472656 519.316406 471.691406 518.976562 470.871094 C 518.636719 470.050781 518.378906 469.203125 518.207031 468.332031 C 518.03125 467.464844 517.945312 466.582031 517.945312 465.695312 C 517.945312 464.808594 518.03125 463.929688 518.207031 463.058594 C 518.378906 462.1875 518.636719 461.339844 518.976562 460.519531 C 519.316406 459.699219 519.734375 458.921875 520.226562 458.183594 C 520.722656 457.441406 521.28125 456.761719 521.910156 456.132812 C 522.539062 455.503906 523.222656 454.945312 523.960938 454.449219 C 524.699219 453.957031 525.480469 453.539062 526.300781 453.199219 C 527.125 452.859375 527.96875 452.605469 528.839844 452.429688 C 529.714844 452.257812 530.59375 452.171875 531.484375 452.171875 C 532.371094 452.171875 533.25 452.257812 534.125 452.429688 C 534.996094 452.605469 535.839844 452.859375 536.664062 453.199219 C 537.484375 453.539062 538.265625 453.957031 539.003906 454.449219 C 539.742188 454.945312 540.425781 455.503906 541.054688 456.132812 C 541.683594 456.761719 542.242188 457.441406 542.738281 458.183594 C 543.230469 458.921875 543.648438 459.699219 543.988281 460.519531 C 544.328125 461.339844 544.585938 462.1875 544.757812 463.058594 C 544.933594 463.929688 545.019531 464.808594 545.019531 465.695312 Z M 545.019531 465.695312 " fill-opacity="1" fill-rule="nonzero"/></svg>