<svg xmlns="http://www.w3.org/2000/svg" xmlns:xlink="http://www.w3.org/1999/xlink" width="1920" zoomAndPan="magnify" viewBox="0 0 1440 809.999993" height="1080" preserveAspectRatio="xMidYMid meet" version="1.0"><path fill="#ffb04b" d="M 926.847656 184.226562 C 926.847656 184.226562 986.804688 81 1060.28125 102.585938 C 1099.957031 114.1875 1107.449219 166.460938 1072.917969 189.074219 C 1069.976562 190.984375 1066.890625 192.890625 1063.367188 194.800781 C 1063.367188 194.800781 1158.441406 166.167969 1158.441406 257.5 C 1158.441406 271.011719 1153.300781 284.371094 1143.011719 292.890625 C 1131.992188 302.140625 1113.769531 308.894531 1084.527344 299.351562 C 1084.527344 299.351562 1114.359375 316.972656 1105.6875 348.542969 C 1099.222656 372.183594 1075.269531 387.453125 1051.167969 383.78125 C 1032.800781 380.992188 1010.460938 369.539062 991.066406 335.765625 C 990.917969 335.914062 992.242188 230.628906 926.847656 184.226562 Z M 926.847656 184.226562 " fill-opacity="1" fill-rule="nonzero"/><path fill="#ffffff" d="M 1078.796875 138.855469 C 1078.796875 139.875 1078.722656 140.890625 1078.582031 141.90625 C 1078.4375 142.921875 1078.222656 143.929688 1077.941406 144.929688 C 1077.65625 145.929688 1077.300781 146.914062 1076.878906 147.890625 C 1076.453125 148.867188 1075.964844 149.824219 1075.40625 150.769531 C 1074.847656 151.710938 1074.226562 152.628906 1073.539062 153.53125 C 1072.851562 154.429688 1072.101562 155.300781 1071.292969 156.148438 C 1070.480469 156.996094 1069.613281 157.816406 1068.6875 158.601562 C 1067.761719 159.390625 1066.785156 160.144531 1065.753906 160.867188 C 1064.722656 161.589844 1063.644531 162.273438 1062.515625 162.917969 C 1061.390625 163.566406 1060.21875 164.171875 1059.007812 164.738281 C 1057.792969 165.304688 1056.542969 165.828125 1055.257812 166.308594 C 1053.972656 166.789062 1052.65625 167.226562 1051.308594 167.613281 C 1049.960938 168.003906 1048.589844 168.347656 1047.195312 168.644531 C 1045.796875 168.941406 1044.386719 169.1875 1042.957031 169.386719 C 1041.523438 169.585938 1040.085938 169.734375 1038.632812 169.835938 C 1037.183594 169.933594 1035.726562 169.984375 1034.269531 169.984375 C 1032.8125 169.984375 1031.355469 169.933594 1029.90625 169.835938 C 1028.453125 169.734375 1027.011719 169.585938 1025.582031 169.386719 C 1024.152344 169.1875 1022.738281 168.941406 1021.34375 168.644531 C 1019.949219 168.347656 1018.578125 168.003906 1017.230469 167.613281 C 1015.882812 167.226562 1014.566406 166.789062 1013.28125 166.308594 C 1011.992188 165.828125 1010.742188 165.304688 1009.53125 164.738281 C 1008.320312 164.171875 1007.148438 163.566406 1006.023438 162.917969 C 1004.894531 162.273438 1003.816406 161.589844 1002.785156 160.867188 C 1001.753906 160.144531 1000.773438 159.390625 999.847656 158.601562 C 998.925781 157.816406 998.058594 156.996094 997.246094 156.148438 C 996.4375 155.300781 995.6875 154.429688 995 153.53125 C 994.3125 152.628906 993.691406 151.710938 993.132812 150.769531 C 992.574219 149.824219 992.082031 148.867188 991.660156 147.890625 C 991.238281 146.914062 990.882812 145.929688 990.597656 144.929688 C 990.3125 143.929688 990.101562 142.921875 989.957031 141.90625 C 989.8125 140.890625 989.742188 139.875 989.742188 138.855469 C 989.742188 137.835938 989.8125 136.816406 989.957031 135.804688 C 990.101562 134.789062 990.3125 133.78125 990.597656 132.78125 C 990.882812 131.78125 991.238281 130.792969 991.660156 129.816406 C 992.082031 128.84375 992.574219 127.882812 993.132812 126.941406 C 993.691406 126 994.3125 125.078125 995 124.179688 C 995.6875 123.28125 996.4375 122.40625 997.246094 121.558594 C 998.058594 120.710938 998.925781 119.894531 999.847656 119.105469 C 1000.773438 118.316406 1001.753906 117.5625 1002.785156 116.84375 C 1003.816406 116.121094 1004.894531 115.4375 1006.023438 114.789062 C 1007.148438 114.144531 1008.320312 113.539062 1009.53125 112.972656 C 1010.742188 112.40625 1011.992188 111.882812 1013.28125 111.402344 C 1014.566406 110.921875 1015.882812 110.484375 1017.230469 110.09375 C 1018.578125 109.703125 1019.949219 109.359375 1021.34375 109.066406 C 1022.738281 108.769531 1024.152344 108.523438 1025.582031 108.324219 C 1027.011719 108.125 1028.453125 107.976562 1029.90625 107.875 C 1031.355469 107.773438 1032.8125 107.726562 1034.269531 107.726562 C 1035.726562 107.726562 1037.183594 107.773438 1038.632812 107.875 C 1040.085938 107.976562 1041.523438 108.125 1042.957031 108.324219 C 1044.386719 108.523438 1045.796875 108.769531 1047.195312 109.066406 C 1048.589844 109.359375 1049.960938 109.703125 1051.308594 110.09375 C 1052.65625 110.484375 1053.972656 110.921875 1055.257812 111.402344 C 1056.542969 111.882812 1057.792969 112.40625 1059.007812 112.972656 C 1060.21875 113.539062 1061.390625 114.144531 1062.515625 114.789062 C 1063.644531 115.4375 1064.722656 116.121094 1065.753906 116.84375 C 1066.785156 117.5625 1067.761719 118.316406 1068.6875 119.105469 C 1069.613281 119.894531 1070.480469 120.710938 1071.292969 121.558594 C 1072.101562 122.40625 1072.851562 123.28125 1073.539062 124.179688 C 1074.226562 125.078125 1074.847656 126 1075.40625 126.941406 C 1075.964844 127.882812 1076.453125 128.84375 1076.878906 129.816406 C 1077.300781 130.792969 1077.65625 131.78125 1077.941406 132.78125 C 1078.222656 133.78125 1078.4375 134.789062 1078.582031 135.804688 C 1078.722656 136.816406 1078.796875 137.835938 1078.796875 138.855469 Z M 1078.796875 138.855469 " fill-opacity="0.1" fill-rule="nonzero"/><path fill="#ffffff" d="M 1134.289062 212.792969 C 1135.351562 213.773438 1136.378906 214.796875 1137.363281 215.851562 C 1138.347656 216.910156 1139.289062 218 1140.183594 219.121094 C 1141.082031 220.246094 1141.929688 221.394531 1142.730469 222.570312 C 1143.53125 223.742188 1144.277344 224.941406 1144.972656 226.15625 C 1145.667969 227.375 1146.308594 228.609375 1146.894531 229.855469 C 1147.480469 231.105469 1148.007812 232.363281 1148.476562 233.628906 C 1148.941406 234.894531 1149.351562 236.164062 1149.699219 237.4375 C 1150.042969 238.710938 1150.328125 239.980469 1150.550781 241.246094 C 1150.773438 242.515625 1150.933594 243.769531 1151.03125 245.019531 C 1151.125 246.269531 1151.15625 247.5 1151.125 248.71875 C 1151.09375 249.9375 1151 251.136719 1150.839844 252.3125 C 1150.679688 253.488281 1150.460938 254.636719 1150.175781 255.761719 C 1149.890625 256.882812 1149.542969 257.976562 1149.136719 259.035156 C 1148.730469 260.09375 1148.261719 261.113281 1147.734375 262.097656 C 1147.207031 263.085938 1146.625 264.027344 1145.984375 264.925781 C 1145.34375 265.828125 1144.648438 266.683594 1143.898438 267.492188 C 1143.152344 268.300781 1142.351562 269.058594 1141.503906 269.765625 C 1140.652344 270.472656 1139.757812 271.128906 1138.816406 271.730469 C 1137.875 272.332031 1136.890625 272.875 1135.867188 273.363281 C 1134.84375 273.851562 1133.78125 274.28125 1132.683594 274.652344 C 1131.582031 275.023438 1130.453125 275.332031 1129.292969 275.582031 C 1128.132812 275.832031 1126.945312 276.019531 1125.730469 276.144531 C 1124.515625 276.269531 1123.285156 276.332031 1122.03125 276.335938 C 1120.777344 276.335938 1119.511719 276.273438 1118.230469 276.152344 C 1116.949219 276.027344 1115.660156 275.84375 1114.363281 275.59375 C 1113.066406 275.347656 1111.765625 275.039062 1110.46875 274.671875 C 1109.167969 274.304688 1107.871094 273.875 1106.582031 273.390625 C 1105.292969 272.902344 1104.011719 272.363281 1102.742188 271.761719 C 1101.472656 271.164062 1100.222656 270.511719 1098.988281 269.804688 C 1097.753906 269.097656 1096.539062 268.34375 1095.351562 267.535156 C 1094.164062 266.730469 1093.003906 265.875 1091.871094 264.976562 C 1090.738281 264.078125 1089.640625 263.136719 1088.578125 262.152344 C 1087.515625 261.171875 1086.492188 260.148438 1085.507812 259.09375 C 1084.523438 258.035156 1083.582031 256.945312 1082.683594 255.824219 C 1081.789062 254.703125 1080.9375 253.550781 1080.136719 252.378906 C 1079.339844 251.203125 1078.589844 250.003906 1077.894531 248.789062 C 1077.199219 247.570312 1076.558594 246.335938 1075.972656 245.089844 C 1075.386719 243.839844 1074.863281 242.582031 1074.394531 241.316406 C 1073.925781 240.050781 1073.519531 238.78125 1073.171875 237.507812 C 1072.824219 236.234375 1072.539062 234.964844 1072.316406 233.699219 C 1072.09375 232.433594 1071.933594 231.175781 1071.839844 229.925781 C 1071.742188 228.675781 1071.710938 227.445312 1071.742188 226.226562 C 1071.773438 225.007812 1071.867188 223.808594 1072.027344 222.632812 C 1072.1875 221.457031 1072.410156 220.308594 1072.691406 219.183594 C 1072.976562 218.0625 1073.324219 216.96875 1073.730469 215.910156 C 1074.140625 214.851562 1074.605469 213.832031 1075.132812 212.847656 C 1075.660156 211.863281 1076.242188 210.917969 1076.882812 210.019531 C 1077.523438 209.117188 1078.21875 208.261719 1078.96875 207.453125 C 1079.71875 206.644531 1080.515625 205.886719 1081.363281 205.179688 C 1082.214844 204.472656 1083.109375 203.816406 1084.050781 203.214844 C 1084.992188 202.613281 1085.976562 202.070312 1087 201.582031 C 1088.027344 201.09375 1089.085938 200.664062 1090.1875 200.292969 C 1091.285156 199.921875 1092.414062 199.613281 1093.574219 199.363281 C 1094.738281 199.113281 1095.925781 198.925781 1097.136719 198.800781 C 1098.351562 198.675781 1099.585938 198.613281 1100.835938 198.609375 C 1102.089844 198.609375 1103.359375 198.671875 1104.640625 198.792969 C 1105.921875 198.917969 1107.207031 199.101562 1108.503906 199.351562 C 1109.800781 199.597656 1111.101562 199.90625 1112.402344 200.273438 C 1113.699219 200.640625 1114.996094 201.070312 1116.285156 201.554688 C 1117.578125 202.042969 1118.855469 202.582031 1120.125 203.183594 C 1121.394531 203.78125 1122.644531 204.433594 1123.882812 205.140625 C 1125.117188 205.847656 1126.328125 206.601562 1127.515625 207.410156 C 1128.707031 208.214844 1129.867188 209.070312 1130.996094 209.96875 C 1132.128906 210.867188 1133.226562 211.808594 1134.289062 212.792969 Z M 1134.289062 212.792969 " fill-opacity="0.1" fill-rule="nonzero"/><path fill="#ffb04b" d="M 457.925781 191.277344 C 457.925781 191.277344 403.699219 117.417969 346.386719 134.890625 C 329.488281 140.03125 318.027344 156.917969 321.847656 174.097656 C 323.757812 182.464844 329.195312 190.835938 341.980469 195.535156 C 341.980469 195.535156 311.855469 192.597656 295.691406 214.035156 C 273.355469 243.699219 303.332031 284.371094 339.335938 275.121094 C 340.511719 274.828125 341.832031 274.535156 343.007812 274.09375 C 343.007812 274.09375 338.160156 276.882812 332.28125 282.316406 C 288.488281 321.667969 347.710938 388.777344 392.824219 350.890625 C 399.4375 345.3125 406.199219 337.96875 412.957031 328.425781 C 413.25 328.425781 412.515625 252.363281 457.925781 191.277344 Z M 457.925781 191.277344 " fill-opacity="1" fill-rule="nonzero"/><path fill="#ffb04b" d="M 457.925781 191.277344 C 457.925781 191.277344 403.699219 117.417969 346.386719 134.890625 C 329.488281 140.03125 318.027344 156.917969 321.847656 174.097656 C 323.757812 182.464844 329.195312 190.835938 341.980469 195.535156 C 341.980469 195.535156 311.855469 192.597656 295.691406 214.035156 C 273.355469 243.699219 303.332031 284.371094 339.335938 275.121094 C 340.511719 274.828125 341.832031 274.535156 343.007812 274.09375 C 343.007812 274.09375 338.160156 276.882812 332.28125 282.316406 C 288.488281 321.667969 347.710938 388.777344 392.824219 350.890625 C 399.4375 345.3125 406.199219 337.96875 412.957031 328.425781 C 413.25 328.425781 412.515625 252.363281 457.925781 191.277344 Z M 457.925781 191.277344 " fill-opacity="0.3" fill-rule="nonzero"/><path fill="#d2593e" d="M 463.65625 186.136719 C 463.65625 187.003906 463.613281 187.867188 463.527344 188.726562 C 463.445312 189.589844 463.316406 190.445312 463.148438 191.292969 C 462.980469 192.140625 462.769531 192.980469 462.515625 193.808594 C 462.265625 194.636719 461.972656 195.453125 461.640625 196.25 C 461.3125 197.050781 460.941406 197.832031 460.53125 198.597656 C 460.125 199.359375 459.679688 200.101562 459.199219 200.820312 C 458.71875 201.542969 458.203125 202.234375 457.652344 202.90625 C 457.101562 203.574219 456.519531 204.214844 455.910156 204.828125 C 455.296875 205.4375 454.65625 206.019531 453.984375 206.570312 C 453.316406 207.117188 452.621094 207.632812 451.898438 208.113281 C 451.179688 208.59375 450.4375 209.039062 449.671875 209.445312 C 448.910156 209.855469 448.128906 210.226562 447.328125 210.554688 C 446.527344 210.886719 445.710938 211.179688 444.882812 211.429688 C 444.054688 211.679688 443.214844 211.890625 442.363281 212.058594 C 441.515625 212.230469 440.660156 212.355469 439.796875 212.441406 C 438.933594 212.527344 438.070312 212.566406 437.203125 212.566406 C 436.339844 212.566406 435.472656 212.527344 434.613281 212.441406 C 433.75 212.355469 432.894531 212.230469 432.042969 212.058594 C 431.195312 211.890625 430.355469 211.679688 429.527344 211.429688 C 428.699219 211.179688 427.882812 210.886719 427.082031 210.554688 C 426.28125 210.226562 425.5 209.855469 424.734375 209.445312 C 423.972656 209.039062 423.230469 208.59375 422.507812 208.113281 C 421.789062 207.632812 421.09375 207.117188 420.425781 206.570312 C 419.753906 206.019531 419.113281 205.4375 418.5 204.828125 C 417.886719 204.214844 417.308594 203.574219 416.757812 202.90625 C 416.207031 202.234375 415.691406 201.542969 415.210938 200.820312 C 414.730469 200.101562 414.285156 199.359375 413.875 198.597656 C 413.46875 197.832031 413.097656 197.050781 412.765625 196.25 C 412.433594 195.453125 412.144531 194.636719 411.890625 193.808594 C 411.640625 192.980469 411.429688 192.140625 411.261719 191.292969 C 411.09375 190.445312 410.964844 189.589844 410.878906 188.726562 C 410.796875 187.867188 410.753906 187.003906 410.753906 186.136719 C 410.753906 185.269531 410.796875 184.40625 410.878906 183.546875 C 410.964844 182.683594 411.09375 181.828125 411.261719 180.980469 C 411.429688 180.132812 411.640625 179.292969 411.890625 178.464844 C 412.144531 177.636719 412.433594 176.820312 412.765625 176.023438 C 413.097656 175.222656 413.46875 174.441406 413.875 173.675781 C 414.285156 172.914062 414.730469 172.171875 415.210938 171.453125 C 415.691406 170.734375 416.207031 170.039062 416.757812 169.371094 C 417.308594 168.699219 417.886719 168.058594 418.5 167.449219 C 419.113281 166.835938 419.753906 166.253906 420.425781 165.707031 C 421.09375 165.15625 421.789062 164.640625 422.507812 164.160156 C 423.230469 163.679688 423.972656 163.234375 424.734375 162.828125 C 425.5 162.417969 426.28125 162.050781 427.082031 161.71875 C 427.882812 161.386719 428.695312 161.09375 429.527344 160.84375 C 430.355469 160.59375 431.195312 160.382812 432.042969 160.214844 C 432.894531 160.046875 433.75 159.917969 434.613281 159.832031 C 435.472656 159.75 436.339844 159.707031 437.203125 159.707031 C 438.070312 159.707031 438.933594 159.75 439.796875 159.832031 C 440.660156 159.917969 441.515625 160.046875 442.363281 160.214844 C 443.214844 160.382812 444.054688 160.59375 444.882812 160.84375 C 445.710938 161.09375 446.527344 161.386719 447.328125 161.71875 C 448.128906 162.050781 448.910156 162.417969 449.671875 162.828125 C 450.4375 163.234375 451.179688 163.679688 451.898438 164.160156 C 452.621094 164.640625 453.316406 165.15625 453.984375 165.707031 C 454.65625 166.253906 455.296875 166.835938 455.910156 167.449219 C 456.519531 168.058594 457.101562 168.699219 457.652344 169.371094 C 458.203125 170.039062 458.71875 170.734375 459.199219 171.453125 C 459.679688 172.171875 460.125 172.914062 460.53125 173.675781 C 460.941406 174.441406 461.3125 175.222656 461.640625 176.023438 C 461.972656 176.820312 462.265625 177.636719 462.515625 178.464844 C 462.769531 179.292969 462.980469 180.132812 463.148438 180.980469 C 463.316406 181.828125 463.445312 182.683594 463.527344 183.546875 C 463.613281 184.40625 463.65625 185.269531 463.65625 186.136719 Z M 463.65625 186.136719 " fill-opacity="1" fill-rule="nonzero"/><path fill="#ffffff" d="M 448.8125 181.144531 C 448.8125 182.167969 448.714844 183.179688 448.515625 184.179688 C 448.316406 185.183594 448.019531 186.15625 447.628906 187.101562 C 447.238281 188.046875 446.757812 188.941406 446.1875 189.792969 C 445.621094 190.640625 444.976562 191.429688 444.25 192.152344 C 443.527344 192.875 442.742188 193.519531 441.890625 194.085938 C 441.039062 194.652344 440.144531 195.132812 439.199219 195.523438 C 438.253906 195.914062 437.277344 196.210938 436.277344 196.410156 C 435.273438 196.609375 434.261719 196.710938 433.238281 196.710938 C 432.214844 196.710938 431.203125 196.609375 430.199219 196.410156 C 429.195312 196.210938 428.222656 195.914062 427.277344 195.523438 C 426.332031 195.132812 425.433594 194.652344 424.582031 194.085938 C 423.734375 193.519531 422.945312 192.875 422.222656 192.152344 C 421.5 191.429688 420.851562 190.640625 420.285156 189.792969 C 419.71875 188.941406 419.238281 188.046875 418.847656 187.101562 C 418.453125 186.15625 418.160156 185.183594 417.960938 184.179688 C 417.761719 183.179688 417.660156 182.167969 417.660156 181.144531 C 417.660156 180.121094 417.761719 179.109375 417.960938 178.109375 C 418.160156 177.105469 418.453125 176.132812 418.847656 175.1875 C 419.238281 174.242188 419.71875 173.347656 420.285156 172.496094 C 420.851562 171.648438 421.5 170.859375 422.222656 170.136719 C 422.945312 169.414062 423.734375 168.769531 424.582031 168.203125 C 425.433594 167.636719 426.332031 167.15625 427.277344 166.765625 C 428.222656 166.375 429.195312 166.078125 430.199219 165.878906 C 431.203125 165.679688 432.214844 165.578125 433.238281 165.578125 C 434.261719 165.578125 435.273438 165.679688 436.277344 165.878906 C 437.277344 166.078125 438.253906 166.375 439.199219 166.765625 C 440.144531 167.15625 441.039062 167.636719 441.890625 168.203125 C 442.742188 168.769531 443.527344 169.414062 444.25 170.136719 C 444.976562 170.859375 445.621094 171.648438 446.1875 172.496094 C 446.757812 173.347656 447.238281 174.242188 447.628906 175.1875 C 448.019531 176.132812 448.316406 177.105469 448.515625 178.109375 C 448.714844 179.109375 448.8125 180.121094 448.8125 181.144531 Z M 448.8125 181.144531 " fill-opacity="0.1" fill-rule="nonzero"/><path fill="#ffffff" d="M 392.902344 156.03125 C 392.988281 156.777344 393.023438 157.527344 393.007812 158.28125 C 392.988281 159.035156 392.921875 159.789062 392.804688 160.542969 C 392.683594 161.296875 392.515625 162.046875 392.296875 162.796875 C 392.074219 163.542969 391.804688 164.285156 391.484375 165.019531 C 391.167969 165.753906 390.800781 166.480469 390.382812 167.191406 C 389.96875 167.90625 389.507812 168.605469 389 169.292969 C 388.492188 169.980469 387.941406 170.648438 387.347656 171.300781 C 386.75 171.953125 386.117188 172.585938 385.441406 173.199219 C 384.765625 173.808594 384.050781 174.398438 383.300781 174.964844 C 382.546875 175.53125 381.761719 176.070312 380.945312 176.585938 C 380.125 177.097656 379.277344 177.585938 378.398438 178.042969 C 377.519531 178.5 376.617188 178.925781 375.6875 179.324219 C 374.753906 179.71875 373.804688 180.082031 372.832031 180.414062 C 371.859375 180.746094 370.871094 181.042969 369.867188 181.304688 C 368.859375 181.570312 367.84375 181.796875 366.8125 181.988281 C 365.785156 182.183594 364.75 182.339844 363.707031 182.460938 C 362.664062 182.578125 361.621094 182.664062 360.574219 182.710938 C 359.53125 182.757812 358.488281 182.765625 357.449219 182.738281 C 356.410156 182.710938 355.378906 182.648438 354.355469 182.546875 C 353.332031 182.445312 352.324219 182.304688 351.328125 182.132812 C 350.332031 181.957031 349.355469 181.75 348.394531 181.503906 C 347.433594 181.257812 346.5 180.976562 345.582031 180.664062 C 344.667969 180.351562 343.78125 180.003906 342.921875 179.625 C 342.0625 179.242188 341.230469 178.832031 340.433594 178.390625 C 339.636719 177.949219 338.875 177.476562 338.144531 176.976562 C 337.417969 176.476562 336.730469 175.953125 336.078125 175.398438 C 335.425781 174.847656 334.820312 174.269531 334.25 173.667969 C 333.683594 173.066406 333.160156 172.445312 332.683594 171.804688 C 332.203125 171.160156 331.773438 170.5 331.386719 169.824219 C 331.003906 169.144531 330.667969 168.453125 330.378906 167.742188 C 330.089844 167.035156 329.851562 166.316406 329.664062 165.589844 C 329.476562 164.859375 329.339844 164.121094 329.253906 163.375 C 329.167969 162.628906 329.132812 161.878906 329.148438 161.128906 C 329.164062 160.375 329.234375 159.621094 329.351562 158.867188 C 329.472656 158.109375 329.640625 157.359375 329.859375 156.613281 C 330.082031 155.863281 330.351562 155.121094 330.671875 154.386719 C 330.988281 153.652344 331.355469 152.929688 331.773438 152.214844 C 332.1875 151.5 332.648438 150.800781 333.15625 150.113281 C 333.664062 149.425781 334.214844 148.757812 334.808594 148.105469 C 335.40625 147.453125 336.039062 146.820312 336.714844 146.210938 C 337.390625 145.597656 338.105469 145.007812 338.855469 144.441406 C 339.609375 143.875 340.394531 143.335938 341.210938 142.824219 C 342.03125 142.308594 342.878906 141.824219 343.757812 141.367188 C 344.636719 140.910156 345.539062 140.480469 346.46875 140.085938 C 347.398438 139.6875 348.351562 139.324219 349.324219 138.992188 C 350.296875 138.664062 351.285156 138.363281 352.289062 138.101562 C 353.296875 137.839844 354.3125 137.609375 355.34375 137.417969 C 356.371094 137.226562 357.40625 137.066406 358.449219 136.949219 C 359.492188 136.828125 360.535156 136.746094 361.582031 136.699219 C 362.625 136.652344 363.667969 136.640625 364.707031 136.667969 C 365.746094 136.695312 366.777344 136.761719 367.800781 136.863281 C 368.824219 136.964844 369.832031 137.101562 370.828125 137.273438 C 371.824219 137.449219 372.800781 137.660156 373.761719 137.902344 C 374.722656 138.148438 375.65625 138.429688 376.574219 138.742188 C 377.488281 139.058594 378.375 139.402344 379.234375 139.785156 C 380.09375 140.164062 380.925781 140.574219 381.722656 141.015625 C 382.519531 141.457031 383.28125 141.929688 384.011719 142.429688 C 384.738281 142.929688 385.425781 143.457031 386.078125 144.007812 C 386.730469 144.5625 387.335938 145.136719 387.90625 145.738281 C 388.472656 146.339844 388.996094 146.960938 389.472656 147.601562 C 389.953125 148.246094 390.382812 148.90625 390.769531 149.585938 C 391.152344 150.261719 391.488281 150.957031 391.777344 151.664062 C 392.066406 152.371094 392.304688 153.089844 392.492188 153.820312 C 392.679688 154.550781 392.816406 155.285156 392.902344 156.03125 Z M 392.902344 156.03125 " fill-opacity="0.1" fill-rule="nonzero"/><path fill="#ffffff" d="M 348.746094 209.941406 C 349.183594 210.554688 349.582031 211.191406 349.933594 211.859375 C 350.285156 212.523438 350.589844 213.214844 350.855469 213.933594 C 351.117188 214.652344 351.332031 215.390625 351.503906 216.148438 C 351.675781 216.910156 351.800781 217.691406 351.878906 218.488281 C 351.957031 219.285156 351.988281 220.09375 351.96875 220.921875 C 351.953125 221.746094 351.890625 222.582031 351.78125 223.429688 C 351.671875 224.277344 351.515625 225.128906 351.3125 225.988281 C 351.109375 226.847656 350.859375 227.707031 350.566406 228.570312 C 350.273438 229.433594 349.9375 230.292969 349.554688 231.152344 C 349.171875 232.011719 348.75 232.863281 348.285156 233.710938 C 347.816406 234.558594 347.3125 235.394531 346.765625 236.222656 C 346.21875 237.046875 345.636719 237.859375 345.015625 238.65625 C 344.394531 239.453125 343.742188 240.234375 343.050781 240.996094 C 342.363281 241.757812 341.644531 242.496094 340.894531 243.214844 C 340.140625 243.933594 339.363281 244.625 338.558594 245.292969 C 337.753906 245.960938 336.921875 246.601562 336.070312 247.210938 C 335.21875 247.824219 334.34375 248.402344 333.453125 248.949219 C 332.5625 249.5 331.65625 250.011719 330.734375 250.492188 C 329.8125 250.972656 328.878906 251.417969 327.9375 251.824219 C 326.996094 252.230469 326.046875 252.601562 325.089844 252.933594 C 324.136719 253.261719 323.179688 253.554688 322.21875 253.804688 C 321.261719 254.058594 320.304688 254.265625 319.355469 254.4375 C 318.402344 254.605469 317.457031 254.734375 316.523438 254.820312 C 315.585938 254.902344 314.660156 254.945312 313.75 254.949219 C 312.835938 254.949219 311.941406 254.90625 311.0625 254.824219 C 310.183594 254.738281 309.324219 254.613281 308.484375 254.445312 C 307.648438 254.277344 306.835938 254.070312 306.046875 253.820312 C 305.261719 253.570312 304.5 253.28125 303.769531 252.953125 C 303.039062 252.621094 302.34375 252.253906 301.675781 251.847656 C 301.007812 251.441406 300.378906 251 299.785156 250.519531 C 299.1875 250.042969 298.632812 249.527344 298.113281 248.980469 C 297.59375 248.433594 297.113281 247.855469 296.675781 247.246094 C 296.238281 246.636719 295.84375 246 295.492188 245.332031 C 295.140625 244.664062 294.835938 243.972656 294.570312 243.257812 C 294.308594 242.539062 294.09375 241.800781 293.921875 241.039062 C 293.75 240.277344 293.625 239.5 293.546875 238.703125 C 293.46875 237.90625 293.4375 237.09375 293.453125 236.269531 C 293.472656 235.441406 293.535156 234.605469 293.644531 233.761719 C 293.753906 232.914062 293.910156 232.0625 294.113281 231.203125 C 294.316406 230.34375 294.5625 229.484375 294.859375 228.621094 C 295.152344 227.757812 295.488281 226.894531 295.871094 226.035156 C 296.253906 225.179688 296.675781 224.324219 297.140625 223.476562 C 297.609375 222.632812 298.113281 221.796875 298.660156 220.96875 C 299.207031 220.144531 299.789062 219.332031 300.410156 218.535156 C 301.027344 217.734375 301.683594 216.957031 302.371094 216.195312 C 303.0625 215.433594 303.78125 214.691406 304.53125 213.976562 C 305.285156 213.257812 306.0625 212.5625 306.867188 211.894531 C 307.671875 211.230469 308.503906 210.589844 309.355469 209.980469 C 310.207031 209.367188 311.078125 208.789062 311.972656 208.238281 C 312.863281 207.691406 313.769531 207.175781 314.691406 206.699219 C 315.613281 206.21875 316.546875 205.773438 317.488281 205.367188 C 318.429688 204.957031 319.378906 204.589844 320.335938 204.257812 C 321.289062 203.925781 322.246094 203.636719 323.207031 203.382812 C 324.164062 203.132812 325.117188 202.921875 326.070312 202.753906 C 327.023438 202.585938 327.96875 202.457031 328.902344 202.371094 C 329.839844 202.285156 330.765625 202.242188 331.675781 202.242188 C 332.589844 202.242188 333.484375 202.28125 334.363281 202.367188 C 335.242188 202.449219 336.101562 202.574219 336.9375 202.742188 C 337.777344 202.910156 338.589844 203.121094 339.378906 203.371094 C 340.164062 203.621094 340.925781 203.910156 341.65625 204.238281 C 342.386719 204.566406 343.082031 204.9375 343.75 205.34375 C 344.414062 205.75 345.046875 206.191406 345.640625 206.667969 C 346.238281 207.148438 346.792969 207.660156 347.3125 208.207031 C 347.832031 208.753906 348.3125 209.332031 348.746094 209.941406 Z M 348.746094 209.941406 " fill-opacity="0.1" fill-rule="nonzero"/><path fill="#ffb04b" d="M 409.429688 401.402344 C 409.429688 401.402344 378.128906 298.324219 431.621094 208.015625 C 462.773438 155.59375 524.789062 127.988281 582.980469 146.195312 C 593.5625 149.574219 604.140625 154.417969 614.132812 161.320312 C 614.132812 161.320312 680.261719 84.523438 796.207031 102.144531 C 949.332031 125.492188 1046.761719 278.792969 1002.378906 427.101562 C 1001.941406 428.863281 1001.351562 430.476562 1000.765625 432.238281 L 713.179688 541.046875 Z M 409.429688 401.402344 " fill-opacity="1" fill-rule="nonzero"/><path fill="#ffffff" d="M 891.785156 152.441406 C 893.21875 153.316406 894.636719 154.214844 896.042969 155.132812 C 897.449219 156.050781 898.839844 156.988281 900.214844 157.945312 C 901.59375 158.902344 902.949219 159.878906 904.289062 160.871094 C 905.632812 161.867188 906.953125 162.875 908.257812 163.90625 C 909.5625 164.933594 910.84375 165.976562 912.105469 167.035156 C 913.371094 168.097656 914.609375 169.171875 915.828125 170.261719 C 917.046875 171.347656 918.242188 172.453125 919.417969 173.566406 C 920.589844 174.683594 921.734375 175.808594 922.859375 176.949219 C 923.980469 178.089844 925.078125 179.238281 926.148438 180.402344 C 927.21875 181.5625 928.261719 182.730469 929.277344 183.910156 C 930.296875 185.089844 931.28125 186.277344 932.242188 187.472656 C 933.199219 188.667969 934.128906 189.867188 935.027344 191.074219 C 935.925781 192.28125 936.796875 193.496094 937.632812 194.710938 C 938.472656 195.929688 939.277344 197.148438 940.050781 198.375 C 940.824219 199.597656 941.566406 200.824219 942.273438 202.050781 C 942.980469 203.28125 943.65625 204.507812 944.296875 205.738281 C 944.9375 206.964844 945.542969 208.191406 946.117188 209.417969 C 946.6875 210.648438 947.226562 211.871094 947.726562 213.09375 C 948.230469 214.316406 948.695312 215.53125 949.128906 216.746094 C 949.558594 217.960938 949.953125 219.167969 950.308594 220.371094 C 950.667969 221.574219 950.988281 222.769531 951.273438 223.960938 C 951.558594 225.148438 951.808594 226.328125 952.019531 227.503906 C 952.230469 228.675781 952.402344 229.839844 952.539062 230.992188 C 952.675781 232.144531 952.773438 233.285156 952.835938 234.417969 C 952.898438 235.546875 952.921875 236.667969 952.90625 237.773438 C 952.894531 238.878906 952.84375 239.96875 952.753906 241.050781 C 952.667969 242.128906 952.539062 243.191406 952.378906 244.238281 C 952.214844 245.285156 952.015625 246.320312 951.777344 247.335938 C 951.539062 248.347656 951.265625 249.347656 950.953125 250.328125 C 950.640625 251.308594 950.292969 252.269531 949.910156 253.210938 C 949.527344 254.15625 949.105469 255.078125 948.648438 255.980469 C 948.191406 256.882812 947.703125 257.765625 947.175781 258.625 C 946.648438 259.488281 946.085938 260.324219 945.488281 261.140625 C 944.890625 261.957031 944.257812 262.753906 943.59375 263.523438 C 942.929688 264.292969 942.230469 265.042969 941.5 265.765625 C 940.765625 266.488281 940 267.183594 939.203125 267.859375 C 938.40625 268.53125 937.578125 269.179688 936.71875 269.800781 C 935.859375 270.421875 934.96875 271.019531 934.046875 271.585938 C 933.128906 272.15625 932.175781 272.699219 931.199219 273.214844 C 930.21875 273.730469 929.210938 274.214844 928.175781 274.675781 C 927.140625 275.136719 926.074219 275.566406 924.988281 275.972656 C 923.898438 276.375 922.78125 276.75 921.640625 277.09375 C 920.5 277.441406 919.335938 277.757812 918.144531 278.042969 C 916.957031 278.332031 915.742188 278.589844 914.507812 278.820312 C 913.273438 279.046875 912.015625 279.246094 910.738281 279.414062 C 909.460938 279.585938 908.164062 279.722656 906.847656 279.832031 C 905.53125 279.941406 904.195312 280.019531 902.839844 280.070312 C 901.488281 280.117188 900.117188 280.136719 898.730469 280.125 C 897.34375 280.113281 895.941406 280.074219 894.523438 280 C 893.109375 279.929688 891.679688 279.828125 890.234375 279.695312 C 888.792969 279.566406 887.339844 279.402344 885.875 279.210938 C 884.40625 279.019531 882.933594 278.796875 881.445312 278.546875 C 879.960938 278.296875 878.46875 278.015625 876.96875 277.707031 C 875.464844 277.398438 873.960938 277.058594 872.445312 276.691406 C 870.933594 276.324219 869.417969 275.925781 867.894531 275.503906 C 866.371094 275.078125 864.847656 274.625 863.324219 274.144531 C 861.796875 273.664062 860.269531 273.15625 858.742188 272.621094 C 857.214844 272.085938 855.6875 271.523438 854.164062 270.933594 C 852.636719 270.34375 851.113281 269.726562 849.597656 269.085938 C 848.078125 268.445312 846.5625 267.777344 845.054688 267.085938 C 843.542969 266.394531 842.042969 265.675781 840.546875 264.9375 C 839.050781 264.195312 837.5625 263.429688 836.085938 262.640625 C 834.605469 261.855469 833.136719 261.042969 831.679688 260.210938 C 830.222656 259.375 828.777344 258.519531 827.34375 257.644531 C 825.910156 256.765625 824.488281 255.867188 823.082031 254.949219 C 821.675781 254.03125 820.285156 253.09375 818.910156 252.136719 C 817.535156 251.179688 816.175781 250.207031 814.835938 249.210938 C 813.496094 248.21875 812.171875 247.207031 810.871094 246.179688 C 809.566406 245.152344 808.285156 244.105469 807.019531 243.046875 C 805.757812 241.988281 804.515625 240.914062 803.296875 239.824219 C 802.078125 238.734375 800.882812 237.632812 799.710938 236.515625 C 798.539062 235.402344 797.390625 234.273438 796.269531 233.132812 C 795.144531 231.992188 794.046875 230.84375 792.976562 229.683594 C 791.90625 228.523438 790.863281 227.351562 789.847656 226.171875 C 788.832031 224.992188 787.84375 223.808594 786.886719 222.613281 C 785.925781 221.417969 785 220.214844 784.097656 219.007812 C 783.199219 217.800781 782.332031 216.589844 781.492188 215.371094 C 780.65625 214.15625 779.851562 212.933594 779.078125 211.710938 C 778.304688 210.484375 777.5625 209.261719 776.855469 208.03125 C 776.144531 206.804688 775.472656 205.574219 774.828125 204.347656 C 774.1875 203.117188 773.582031 201.890625 773.011719 200.664062 C 772.4375 199.4375 771.902344 198.210938 771.398438 196.992188 C 770.898438 195.769531 770.429688 194.550781 770 193.335938 C 769.570312 192.125 769.175781 190.914062 768.816406 189.710938 C 768.460938 188.507812 768.136719 187.3125 767.851562 186.125 C 767.566406 184.933594 767.320312 183.753906 767.109375 182.582031 C 766.898438 181.410156 766.726562 180.246094 766.589844 179.09375 C 766.453125 177.9375 766.351562 176.796875 766.292969 175.667969 C 766.230469 174.535156 766.207031 173.417969 766.21875 172.3125 C 766.234375 171.207031 766.285156 170.113281 766.371094 169.035156 C 766.460938 167.957031 766.585938 166.894531 766.75 165.84375 C 766.914062 164.796875 767.113281 163.765625 767.351562 162.75 C 767.589844 161.734375 767.863281 160.738281 768.171875 159.757812 C 768.484375 158.777344 768.832031 157.8125 769.214844 156.871094 C 769.601562 155.929688 770.019531 155.007812 770.476562 154.105469 C 770.933594 153.199219 771.425781 152.320312 771.953125 151.457031 C 772.480469 150.597656 773.042969 149.757812 773.640625 148.941406 C 774.238281 148.125 774.867188 147.332031 775.53125 146.558594 C 776.199219 145.789062 776.898438 145.042969 777.628906 144.320312 C 778.359375 143.597656 779.125 142.898438 779.921875 142.226562 C 780.71875 141.550781 781.546875 140.90625 782.40625 140.28125 C 783.265625 139.660156 784.15625 139.066406 785.078125 138.496094 C 786 137.925781 786.949219 137.382812 787.929688 136.871094 C 788.910156 136.355469 789.917969 135.867188 790.953125 135.40625 C 791.988281 134.949219 793.050781 134.515625 794.140625 134.113281 C 795.230469 133.710938 796.347656 133.335938 797.488281 132.988281 C 798.628906 132.644531 799.792969 132.328125 800.980469 132.039062 C 802.171875 131.75 803.382812 131.492188 804.617188 131.265625 C 805.855469 131.035156 807.109375 130.835938 808.386719 130.667969 C 809.664062 130.5 810.964844 130.359375 812.28125 130.25 C 813.597656 130.140625 814.933594 130.0625 816.285156 130.015625 C 817.640625 129.964844 819.011719 129.945312 820.398438 129.957031 C 821.785156 129.96875 823.183594 130.011719 824.601562 130.082031 C 826.019531 130.152344 827.449219 130.253906 828.890625 130.386719 C 830.332031 130.519531 831.789062 130.679688 833.253906 130.871094 C 834.71875 131.0625 836.195312 131.285156 837.679688 131.535156 C 839.164062 131.785156 840.660156 132.066406 842.160156 132.375 C 843.660156 132.6875 845.167969 133.023438 846.679688 133.390625 C 848.195312 133.761719 849.710938 134.15625 851.234375 134.582031 C 852.753906 135.003906 854.277344 135.457031 855.804688 135.9375 C 857.332031 136.417969 858.859375 136.929688 860.386719 137.464844 C 861.914062 138 863.441406 138.5625 864.964844 139.152344 C 866.488281 139.738281 868.011719 140.355469 869.53125 140.996094 C 871.050781 141.636719 872.5625 142.304688 874.074219 142.996094 C 875.582031 143.691406 877.085938 144.40625 878.582031 145.148438 C 880.078125 145.886719 881.5625 146.652344 883.042969 147.441406 C 884.519531 148.230469 885.988281 149.039062 887.445312 149.875 C 888.90625 150.707031 890.351562 151.5625 891.785156 152.441406 Z M 891.785156 152.441406 " fill-opacity="0.1" fill-rule="nonzero"/><path fill="#ffffff" d="M 522.8125 165.167969 C 523.484375 165.90625 524.085938 166.703125 524.617188 167.554688 C 525.152344 168.410156 525.617188 169.316406 526.011719 170.277344 C 526.40625 171.238281 526.730469 172.246094 526.980469 173.304688 C 527.230469 174.363281 527.410156 175.464844 527.515625 176.613281 C 527.621094 177.757812 527.652344 178.941406 527.609375 180.164062 C 527.566406 181.386719 527.449219 182.644531 527.261719 183.929688 C 527.074219 185.21875 526.8125 186.535156 526.480469 187.875 C 526.144531 189.214844 525.742188 190.574219 525.265625 191.957031 C 524.789062 193.335938 524.246094 194.730469 523.636719 196.136719 C 523.023438 197.542969 522.34375 198.957031 521.601562 200.375 C 520.859375 201.792969 520.054688 203.214844 519.1875 204.632812 C 518.320312 206.050781 517.394531 207.460938 516.410156 208.867188 C 515.429688 210.269531 514.390625 211.660156 513.304688 213.035156 C 512.214844 214.410156 511.078125 215.765625 509.890625 217.101562 C 508.707031 218.4375 507.480469 219.746094 506.210938 221.027344 C 504.941406 222.304688 503.636719 223.554688 502.296875 224.769531 C 500.957031 225.980469 499.585938 227.15625 498.1875 228.292969 C 496.785156 229.429688 495.363281 230.519531 493.917969 231.566406 C 492.472656 232.613281 491.011719 233.613281 489.53125 234.558594 C 488.054688 235.507812 486.570312 236.402344 485.074219 237.242188 C 483.578125 238.082031 482.082031 238.863281 480.585938 239.585938 C 479.085938 240.308594 477.59375 240.96875 476.109375 241.570312 C 474.621094 242.167969 473.148438 242.703125 471.6875 243.175781 C 470.226562 243.644531 468.785156 244.050781 467.363281 244.386719 C 465.941406 244.722656 464.546875 244.992188 463.179688 245.191406 C 461.8125 245.390625 460.476562 245.523438 459.175781 245.585938 C 457.875 245.644531 456.613281 245.636719 455.390625 245.558594 C 454.167969 245.480469 452.992188 245.332031 451.859375 245.117188 C 450.730469 244.898438 449.648438 244.613281 448.621094 244.261719 C 447.589844 243.90625 446.617188 243.488281 445.699219 243 C 444.78125 242.515625 443.925781 241.964844 443.125 241.347656 C 442.328125 240.734375 441.597656 240.058594 440.925781 239.320312 C 440.257812 238.582031 439.65625 237.785156 439.121094 236.933594 C 438.589844 236.078125 438.125 235.171875 437.730469 234.210938 C 437.335938 233.253906 437.011719 232.242188 436.761719 231.183594 C 436.511719 230.125 436.332031 229.023438 436.226562 227.878906 C 436.121094 226.730469 436.089844 225.546875 436.132812 224.324219 C 436.175781 223.101562 436.289062 221.84375 436.480469 220.558594 C 436.667969 219.269531 436.929688 217.957031 437.261719 216.613281 C 437.597656 215.273438 438 213.914062 438.476562 212.535156 C 438.949219 211.152344 439.496094 209.761719 440.105469 208.355469 C 440.71875 206.945312 441.398438 205.535156 442.140625 204.113281 C 442.882812 202.695312 443.6875 201.277344 444.554688 199.859375 C 445.421875 198.4375 446.347656 197.027344 447.332031 195.625 C 448.3125 194.21875 449.351562 192.828125 450.4375 191.453125 C 451.527344 190.078125 452.664062 188.722656 453.847656 187.386719 C 455.035156 186.050781 456.261719 184.746094 457.53125 183.464844 C 458.796875 182.183594 460.105469 180.933594 461.445312 179.722656 C 462.785156 178.507812 464.15625 177.332031 465.554688 176.195312 C 466.957031 175.058594 468.378906 173.96875 469.824219 172.921875 C 471.269531 171.875 472.730469 170.875 474.210938 169.929688 C 475.6875 168.980469 477.171875 168.085938 478.667969 167.246094 C 480.164062 166.410156 481.660156 165.628906 483.15625 164.902344 C 484.65625 164.179688 486.148438 163.519531 487.632812 162.917969 C 489.121094 162.320312 490.59375 161.785156 492.054688 161.3125 C 493.515625 160.84375 494.957031 160.4375 496.378906 160.101562 C 497.800781 159.765625 499.195312 159.496094 500.5625 159.296875 C 501.929688 159.097656 503.265625 158.964844 504.566406 158.90625 C 505.867188 158.84375 507.128906 158.851562 508.351562 158.929688 C 509.574219 159.007812 510.75 159.15625 511.878906 159.371094 C 513.011719 159.589844 514.09375 159.875 515.121094 160.226562 C 516.152344 160.582031 517.125 161 518.042969 161.488281 C 518.960938 161.976562 519.816406 162.527344 520.613281 163.140625 C 521.410156 163.753906 522.144531 164.433594 522.8125 165.167969 Z M 522.8125 165.167969 " fill-opacity="0.1" fill-rule="nonzero"/><path fill="#f2b6a7" d="M 874.828125 459.550781 C 874.828125 459.550781 935.078125 394.0625 991.945312 426.21875 C 1023.980469 444.28125 1036.765625 485.394531 1018.691406 517.40625 C 1004.289062 542.957031 970.640625 565.570312 893.488281 553.53125 Z M 874.828125 459.550781 " fill-opacity="1" fill-rule="nonzero"/><path fill="#46312e" d="M 976.8125 521.371094 C 973.871094 523.867188 969.464844 523.425781 966.964844 520.34375 L 929.199219 474.089844 C 926.699219 471.152344 927.140625 466.746094 930.226562 464.25 C 933.167969 461.753906 937.574219 462.195312 940.074219 465.277344 L 977.988281 511.535156 C 980.335938 514.617188 979.898438 519.023438 976.8125 521.371094 Z M 976.8125 521.371094 " fill-opacity="1" fill-rule="nonzero"/><path fill="#46312e" d="M 924.9375 516.230469 C 922.4375 513.296875 922.878906 508.890625 925.964844 506.394531 L 972.253906 468.507812 C 975.195312 466.011719 979.601562 466.453125 982.101562 469.539062 C 984.597656 472.472656 984.160156 476.878906 981.074219 479.375 L 934.78125 517.113281 C 931.84375 519.609375 927.433594 519.167969 924.9375 516.230469 Z M 924.9375 516.230469 " fill-opacity="1" fill-rule="nonzero"/><path fill="#f2b6a7" d="M 478.203125 439.140625 C 478.203125 439.140625 435.292969 383.195312 394.441406 406.542969 C 374.015625 418.289062 363.140625 442.371094 369.019531 465.132812 C 375.042969 488.480469 399.292969 515.644531 478.351562 517.996094 L 478.351562 439.140625 Z M 478.203125 439.140625 " fill-opacity="1" fill-rule="nonzero"/><path fill="#46312e" d="M 437.644531 475.265625 C 435.441406 477.464844 432.0625 477.464844 429.855469 475.265625 L 396.644531 442.078125 C 394.441406 439.875 394.441406 436.5 396.644531 434.296875 C 398.851562 432.09375 402.230469 432.09375 404.433594 434.296875 L 437.644531 467.480469 C 439.851562 469.683594 439.851562 473.207031 437.644531 475.265625 Z M 437.644531 475.265625 " fill-opacity="1" fill-rule="nonzero"/><path fill="#46312e" d="M 396.792969 475.265625 C 394.589844 473.0625 394.589844 469.683594 396.792969 467.480469 L 429.855469 434.441406 C 432.0625 432.238281 435.441406 432.238281 437.644531 434.441406 C 439.851562 436.644531 439.851562 440.023438 437.644531 442.226562 L 404.433594 475.410156 C 402.378906 477.464844 398.851562 477.464844 396.792969 475.265625 Z M 396.792969 475.265625 " fill-opacity="1" fill-rule="nonzero"/><path fill="#f2b6a7" d="M 900.101562 340.613281 L 900.101562 548.097656 C 900.101562 548.242188 899.957031 548.390625 899.808594 548.683594 C 897.898438 551.472656 854.695312 612.410156 781.953125 650.445312 C 713.621094 685.980469 619.277344 701.25 508.035156 629.738281 C 505.539062 628.269531 503.039062 626.507812 500.539062 624.894531 C 487.609375 616.082031 475.707031 605.511719 466.007812 593.324219 C 459.246094 584.804688 453.222656 575.703125 448.667969 565.863281 C 446.902344 562.046875 445.140625 557.933594 443.671875 553.824219 C 442.640625 551.179688 441.761719 548.535156 441.027344 546.039062 C 440.4375 544.132812 439.851562 542.074219 439.410156 540.167969 C 439.261719 539.726562 439.261719 539.140625 439.113281 538.699219 C 438.085938 534.441406 437.351562 530.476562 436.765625 526.363281 C 436.46875 524.160156 436.324219 522.105469 436.175781 519.902344 C 432.941406 480.257812 448.371094 451.621094 448.371094 451.621094 L 448.371094 379.085938 C 448.371094 373.652344 448.519531 368.070312 449.109375 362.636719 C 450.722656 341.492188 455.867188 320.789062 464.832031 301.554688 C 483.640625 261.023438 523.90625 213.597656 610.019531 205.226562 C 610.019531 205.226562 616.632812 280.554688 654.105469 306.984375 C 669.535156 318 690.84375 306.984375 691.578125 288.042969 C 691.726562 282.609375 691.578125 276.445312 690.988281 269.25 C 690.988281 269.25 718.617188 332.683594 779.75 334.59375 C 794.589844 335.03125 806.640625 321.816406 804.4375 307.132812 C 803.996094 304.636719 803.40625 301.699219 802.671875 298.761719 C 804.582031 301.257812 839.265625 344.285156 900.101562 340.613281 C 899.957031 340.613281 900.101562 340.613281 900.101562 340.613281 Z M 900.101562 340.613281 " fill-opacity="1" fill-rule="nonzero"/><path fill="#d2593e" d="M 900.101562 340.613281 L 900.101562 363.078125 L 899.957031 363.226562 C 845.289062 367.484375 818.101562 336.207031 818.101562 336.207031 C 817.074219 338.703125 815.75 340.90625 814.429688 342.816406 C 807.523438 352.800781 795.765625 358.085938 783.570312 358.671875 C 730.519531 361.902344 700.6875 319.761719 700.6875 319.761719 C 687.464844 336.648438 671.738281 336.207031 671.738281 336.207031 C 601.347656 338.554688 587.976562 235.769531 587.976562 235.769531 C 477.175781 248.542969 451.3125 352.359375 448.960938 362.492188 C 450.578125 341.347656 455.71875 320.640625 464.683594 301.40625 C 483.496094 260.878906 523.757812 213.449219 609.871094 205.078125 C 609.871094 205.078125 616.484375 280.40625 653.957031 306.839844 C 669.386719 317.851562 690.695312 306.839844 691.429688 287.898438 C 691.578125 282.464844 691.429688 276.296875 690.84375 269.101562 C 690.84375 269.101562 718.46875 332.535156 779.601562 334.445312 C 794.445312 334.886719 806.492188 321.671875 804.289062 306.984375 C 803.847656 304.488281 803.261719 301.554688 802.527344 298.617188 C 804.582031 301.257812 839.265625 344.285156 900.101562 340.613281 C 899.957031 340.613281 900.101562 340.613281 900.101562 340.613281 Z M 900.101562 340.613281 " fill-opacity="0.15" fill-rule="nonzero"/><path fill="#46312e" d="M 484.230469 377.320312 C 492.605469 377.175781 505.242188 375.414062 517.292969 367.191406 C 528.753906 359.261719 529.050781 341.640625 517 334.738281 C 516.851562 334.59375 516.707031 334.59375 516.558594 334.445312 C 512.738281 332.390625 508.183594 331.949219 503.921875 332.976562 C 497.453125 334.59375 486.726562 338.851562 473.796875 350.304688 C 470.121094 353.535156 468.066406 358.378906 468.503906 363.226562 C 468.503906 363.519531 468.503906 363.8125 468.652344 364.105469 C 469.679688 371.742188 476.441406 377.320312 484.230469 377.320312 Z M 484.230469 377.320312 " fill-opacity="1" fill-rule="nonzero"/><path fill="#46312e" d="M 593.414062 518.140625 C 591.652344 518.140625 590.035156 517.261719 589.003906 515.644531 C 582.097656 504.632812 583.714844 494.792969 586.359375 488.480469 C 589.003906 482.164062 594.003906 477.320312 600.027344 475.117188 C 607.667969 472.328125 614.28125 474.089844 619.277344 476.878906 L 619.277344 453.238281 C 619.277344 450.300781 621.628906 447.953125 624.566406 447.953125 C 627.507812 447.953125 629.859375 450.300781 629.859375 453.238281 L 629.859375 487.746094 C 629.859375 489.949219 628.390625 492.003906 626.332031 492.738281 C 624.273438 493.472656 621.921875 492.882812 620.453125 491.121094 C 620.160156 490.828125 612.664062 481.871094 603.699219 485.101562 C 600.320312 486.277344 597.527344 489.214844 596.058594 492.738281 C 593.5625 498.613281 594.296875 504.632812 597.824219 510.359375 C 599.292969 512.855469 598.558594 516.085938 596.207031 517.554688 C 595.324219 517.847656 594.296875 518.140625 593.414062 518.140625 Z M 593.414062 518.140625 " fill-opacity="1" fill-rule="nonzero"/><path fill="#46312e" d="M 776.367188 371.15625 C 785.625 378.203125 800.175781 386.71875 819.574219 390.097656 C 827.066406 391.417969 834.5625 386.425781 835.738281 378.789062 C 835.738281 378.644531 835.738281 378.496094 835.738281 378.351562 C 837.058594 367.484375 831.769531 356.765625 822.804688 350.597656 C 816.191406 346.046875 806.492188 340.757812 793.710938 337.089844 C 785.773438 334.738281 777.25 337.675781 772.546875 344.429688 C 772.253906 344.871094 771.960938 345.164062 771.8125 345.605469 C 766.230469 353.828125 768.433594 365.132812 776.367188 371.15625 Z M 776.367188 371.15625 " fill-opacity="1" fill-rule="nonzero"/><path fill="#d2593e" d="M 899.808594 548.535156 C 897.898438 551.328125 854.695312 612.265625 781.804688 650.296875 C 769.460938 636.492188 761.820312 618.285156 761.820312 598.316406 C 761.820312 555.292969 796.648438 520.34375 839.703125 520.34375 C 863.953125 520.492188 885.40625 531.355469 899.808594 548.535156 Z M 899.808594 548.535156 " fill-opacity="0.2" fill-rule="nonzero"/><path fill="#d2593e" d="M 532.429688 578.492188 C 532.429688 599.195312 522.878906 617.550781 507.886719 629.738281 C 505.390625 628.269531 502.890625 626.507812 500.394531 624.894531 C 487.316406 616.082031 475.707031 605.511719 465.859375 593.324219 C 453.222656 577.171875 445.433594 561.164062 440.878906 545.894531 C 440.289062 543.984375 439.703125 541.929688 439.261719 540.019531 C 439.113281 539.578125 439.113281 538.992188 438.96875 538.550781 C 437.9375 534.292969 437.203125 530.328125 436.617188 526.21875 C 436.324219 524.015625 436.175781 521.8125 435.882812 519.757812 C 444.992188 515.058594 455.28125 512.414062 466.300781 512.414062 C 502.890625 512.414062 532.429688 541.929688 532.429688 578.492188 Z M 532.429688 578.492188 " fill-opacity="0.2" fill-rule="nonzero"/><path fill="#46312e" d="M 715.238281 574.820312 C 709.210938 588.476562 696.28125 603.601562 669.828125 612.558594 C 649.84375 619.3125 628.09375 620.488281 608.109375 613.441406 C 601.203125 610.945312 593.855469 607.417969 586.800781 602.28125 C 574.605469 593.324219 567.992188 578.199219 571.519531 563.660156 C 572.695312 558.816406 574.898438 554.117188 578.425781 550.445312 C 581.511719 547.363281 585.917969 545.011719 591.796875 544.425781 C 596.648438 543.839844 601.496094 544.867188 605.90625 546.628906 C 613.839844 549.566406 632.503906 552.648438 658.074219 533.558594 C 664.097656 529.007812 670.859375 525.484375 678.207031 524.457031 C 679.234375 524.308594 680.410156 524.160156 681.4375 524.015625 C 682.320312 524.015625 683.054688 524.015625 683.9375 524.015625 C 709.210938 523.867188 725.671875 551.179688 715.238281 574.820312 Z M 715.238281 574.820312 " fill-opacity="1" fill-rule="nonzero"/><path fill="#ffffff" d="M 684.523438 529.449219 C 684.523438 552.5 659.101562 571.148438 627.652344 571.148438 C 606.785156 571.148438 588.417969 562.925781 578.570312 550.59375 C 581.65625 547.507812 586.066406 545.160156 591.945312 544.570312 C 596.792969 543.984375 601.644531 545.011719 606.050781 546.773438 C 613.988281 549.710938 632.648438 552.796875 658.21875 533.707031 C 664.246094 529.152344 671.003906 525.628906 678.351562 524.601562 C 679.382812 524.457031 680.554688 524.308594 681.585938 524.160156 C 682.46875 524.160156 683.203125 524.160156 684.082031 524.160156 C 684.378906 525.777344 684.523438 527.539062 684.523438 529.449219 Z M 684.523438 529.449219 " fill-opacity="1" fill-rule="nonzero"/><path fill="#d2593e" d="M 702.453125 593.175781 C 694.957031 600.664062 684.523438 607.566406 669.828125 612.558594 C 651.605469 618.578125 631.914062 620.195312 613.546875 615.054688 C 615.457031 604.042969 622.511719 584.070312 649.402344 593.175781 C 649.402344 593.175781 662.335938 563.074219 702.453125 593.175781 Z M 702.453125 593.175781 " fill-opacity="1" fill-rule="nonzero"/><path fill="#46312e" d="M 718.46875 482.3125 C 719.058594 465.132812 722.4375 435.175781 737.574219 415.058594 C 753.589844 393.914062 785.332031 395.96875 799 418.582031 C 805.90625 429.890625 811.929688 446.484375 813.695312 470.710938 C 814.871094 488.039062 805.613281 505.074219 789.886719 512.265625 C 789.300781 512.5625 788.859375 512.707031 788.273438 513 C 771.8125 520.050781 752.710938 520.195312 736.546875 512.414062 C 736.398438 512.265625 736.105469 512.265625 735.957031 512.121094 C 724.640625 506.6875 718.027344 494.792969 718.46875 482.3125 Z M 718.46875 482.3125 " fill-opacity="1" fill-rule="nonzero"/><path fill="#ffffff" d="M 780.042969 443.988281 C 780.042969 444.734375 780.007812 445.476562 779.933594 446.21875 C 779.859375 446.960938 779.75 447.695312 779.605469 448.425781 C 779.460938 449.160156 779.277344 449.878906 779.0625 450.59375 C 778.84375 451.308594 778.59375 452.007812 778.308594 452.695312 C 778.023438 453.386719 777.703125 454.058594 777.351562 454.714844 C 777 455.375 776.617188 456.011719 776.203125 456.632812 C 775.789062 457.25 775.347656 457.851562 774.871094 458.425781 C 774.398438 459.003906 773.898438 459.554688 773.371094 460.082031 C 772.84375 460.609375 772.292969 461.109375 771.714844 461.582031 C 771.136719 462.054688 770.539062 462.496094 769.917969 462.910156 C 769.300781 463.324219 768.660156 463.707031 768.003906 464.058594 C 767.34375 464.410156 766.671875 464.730469 765.980469 465.015625 C 765.292969 465.300781 764.589844 465.550781 763.878906 465.765625 C 763.164062 465.984375 762.441406 466.164062 761.707031 466.308594 C 760.976562 466.457031 760.238281 466.566406 759.496094 466.636719 C 758.753906 466.710938 758.011719 466.746094 757.265625 466.746094 C 756.519531 466.746094 755.773438 466.710938 755.03125 466.636719 C 754.289062 466.566406 753.554688 466.457031 752.820312 466.308594 C 752.089844 466.164062 751.367188 465.984375 750.652344 465.765625 C 749.9375 465.550781 749.238281 465.300781 748.546875 465.015625 C 747.859375 464.730469 747.1875 464.410156 746.527344 464.058594 C 745.871094 463.707031 745.230469 463.324219 744.609375 462.910156 C 743.992188 462.496094 743.390625 462.054688 742.816406 461.582031 C 742.238281 461.109375 741.6875 460.609375 741.160156 460.082031 C 740.632812 459.554688 740.132812 459.003906 739.65625 458.425781 C 739.183594 457.851562 738.742188 457.25 738.328125 456.632812 C 737.910156 456.011719 737.527344 455.375 737.175781 454.714844 C 736.824219 454.058594 736.507812 453.386719 736.222656 452.695312 C 735.9375 452.007812 735.683594 451.308594 735.46875 450.59375 C 735.25 449.878906 735.070312 449.160156 734.925781 448.425781 C 734.78125 447.695312 734.671875 446.960938 734.597656 446.21875 C 734.523438 445.476562 734.488281 444.734375 734.488281 443.988281 C 734.488281 443.242188 734.523438 442.5 734.597656 441.757812 C 734.671875 441.015625 734.78125 440.277344 734.925781 439.546875 C 735.070312 438.816406 735.25 438.09375 735.46875 437.378906 C 735.683594 436.667969 735.9375 435.964844 736.222656 435.277344 C 736.507812 434.589844 736.824219 433.914062 737.175781 433.257812 C 737.527344 432.601562 737.910156 431.960938 738.328125 431.34375 C 738.742188 430.722656 739.183594 430.125 739.65625 429.546875 C 740.132812 428.972656 740.632812 428.421875 741.160156 427.894531 C 741.6875 427.367188 742.238281 426.867188 742.816406 426.394531 C 743.390625 425.921875 743.992188 425.476562 744.609375 425.0625 C 745.230469 424.648438 745.871094 424.265625 746.527344 423.914062 C 747.1875 423.5625 747.859375 423.246094 748.546875 422.960938 C 749.238281 422.675781 749.9375 422.421875 750.652344 422.207031 C 751.367188 421.992188 752.089844 421.808594 752.820312 421.664062 C 753.554688 421.519531 754.289062 421.410156 755.03125 421.335938 C 755.773438 421.261719 756.519531 421.226562 757.265625 421.226562 C 758.011719 421.226562 758.753906 421.261719 759.496094 421.335938 C 760.238281 421.410156 760.976562 421.519531 761.707031 421.664062 C 762.441406 421.808594 763.164062 421.992188 763.878906 422.207031 C 764.589844 422.421875 765.292969 422.675781 765.980469 422.960938 C 766.671875 423.246094 767.34375 423.5625 768.003906 423.914062 C 768.660156 424.265625 769.300781 424.648438 769.917969 425.0625 C 770.539062 425.476562 771.136719 425.921875 771.714844 426.394531 C 772.292969 426.867188 772.84375 427.367188 773.371094 427.894531 C 773.898438 428.421875 774.398438 428.972656 774.871094 429.546875 C 775.347656 430.125 775.789062 430.722656 776.203125 431.34375 C 776.617188 431.960938 777 432.601562 777.351562 433.257812 C 777.703125 433.914062 778.023438 434.589844 778.308594 435.277344 C 778.59375 435.964844 778.84375 436.667969 779.0625 437.378906 C 779.277344 438.09375 779.460938 438.816406 779.605469 439.546875 C 779.75 440.277344 779.859375 441.015625 779.933594 441.757812 C 780.007812 442.5 780.042969 443.242188 780.042969 443.988281 Z M 780.042969 443.988281 " fill-opacity="1" fill-rule="nonzero"/><path fill="#46312e" d="M 796.796875 415.351562 C 796.796875 415.351562 810.460938 429.449219 834.269531 427.246094 C 834.269531 427.246094 818.398438 448.097656 799 435.765625 Z M 796.796875 415.351562 " fill-opacity="1" fill-rule="nonzero"/><path fill="#46312e" d="M 566.082031 455 C 565.347656 445.457031 563.582031 432.679688 559.175781 421.082031 C 547.859375 391.273438 506.125 390.390625 492.898438 419.316406 C 487.902344 430.183594 483.640625 444.867188 482.320312 464.398438 C 480.847656 483.925781 493.632812 502.429688 512.886719 506.394531 C 516.265625 507.128906 520.085938 507.570312 524.199219 507.714844 C 524.199219 507.714844 543.449219 509.035156 557.410156 489.214844 C 564.316406 479.375 566.964844 467.039062 566.082031 455 Z M 566.082031 455 " fill-opacity="1" fill-rule="nonzero"/><path fill="#ffffff" d="M 555.355469 441.492188 C 555.355469 442.179688 555.320312 442.863281 555.253906 443.550781 C 555.183594 444.234375 555.085938 444.914062 554.949219 445.585938 C 554.816406 446.261719 554.648438 446.929688 554.449219 447.585938 C 554.25 448.246094 554.015625 448.890625 553.753906 449.527344 C 553.492188 450.160156 553.195312 450.78125 552.871094 451.390625 C 552.546875 451.996094 552.195312 452.585938 551.8125 453.15625 C 551.429688 453.730469 551.019531 454.28125 550.582031 454.8125 C 550.148438 455.34375 549.683594 455.851562 549.199219 456.339844 C 548.710938 456.824219 548.203125 457.285156 547.671875 457.722656 C 547.140625 458.160156 546.585938 458.566406 546.015625 458.949219 C 545.441406 459.332031 544.851562 459.683594 544.246094 460.007812 C 543.636719 460.332031 543.015625 460.628906 542.382812 460.890625 C 541.746094 461.152344 541.097656 461.386719 540.441406 461.585938 C 539.78125 461.785156 539.113281 461.953125 538.4375 462.085938 C 537.765625 462.21875 537.085938 462.320312 536.398438 462.386719 C 535.714844 462.457031 535.027344 462.488281 534.339844 462.488281 C 533.652344 462.488281 532.964844 462.457031 532.28125 462.386719 C 531.59375 462.320312 530.914062 462.21875 530.238281 462.085938 C 529.566406 461.953125 528.898438 461.785156 528.238281 461.585938 C 527.582031 461.386719 526.933594 461.152344 526.296875 460.890625 C 525.660156 460.628906 525.039062 460.332031 524.433594 460.007812 C 523.828125 459.683594 523.238281 459.332031 522.664062 458.949219 C 522.09375 458.566406 521.539062 458.160156 521.007812 457.722656 C 520.476562 457.285156 519.96875 456.824219 519.480469 456.339844 C 518.992188 455.851562 518.53125 455.34375 518.09375 454.8125 C 517.660156 454.28125 517.25 453.730469 516.867188 453.15625 C 516.484375 452.585938 516.132812 451.996094 515.808594 451.390625 C 515.484375 450.78125 515.1875 450.160156 514.925781 449.527344 C 514.660156 448.890625 514.429688 448.246094 514.230469 447.585938 C 514.03125 446.929688 513.863281 446.261719 513.730469 445.585938 C 513.59375 444.914062 513.496094 444.234375 513.425781 443.550781 C 513.359375 442.863281 513.324219 442.179688 513.324219 441.492188 C 513.324219 440.804688 513.359375 440.117188 513.425781 439.433594 C 513.496094 438.75 513.59375 438.070312 513.730469 437.394531 C 513.863281 436.71875 514.03125 436.054688 514.230469 435.394531 C 514.429688 434.738281 514.660156 434.089844 514.925781 433.457031 C 515.1875 432.820312 515.484375 432.199219 515.808594 431.59375 C 516.132812 430.984375 516.484375 430.398438 516.867188 429.824219 C 517.25 429.253906 517.660156 428.703125 518.09375 428.167969 C 518.53125 427.636719 518.992188 427.128906 519.480469 426.644531 C 519.96875 426.15625 520.476562 425.695312 521.007812 425.257812 C 521.539062 424.824219 522.09375 424.414062 522.664062 424.03125 C 523.238281 423.648438 523.828125 423.296875 524.433594 422.972656 C 525.039062 422.648438 525.660156 422.355469 526.296875 422.089844 C 526.933594 421.828125 527.582031 421.597656 528.238281 421.398438 C 528.898438 421.199219 529.566406 421.03125 530.238281 420.894531 C 530.914062 420.761719 531.59375 420.660156 532.28125 420.59375 C 532.964844 420.527344 533.652344 420.492188 534.339844 420.492188 C 535.027344 420.492188 535.714844 420.527344 536.398438 420.59375 C 537.085938 420.660156 537.765625 420.761719 538.4375 420.894531 C 539.113281 421.03125 539.78125 421.199219 540.441406 421.398438 C 541.097656 421.597656 541.746094 421.828125 542.382812 422.089844 C 543.015625 422.355469 543.636719 422.648438 544.246094 422.972656 C 544.851562 423.296875 545.441406 423.648438 546.015625 424.03125 C 546.585938 424.414062 547.140625 424.824219 547.671875 425.257812 C 548.203125 425.695312 548.710938 426.15625 549.199219 426.644531 C 549.683594 427.128906 550.148438 427.636719 550.582031 428.167969 C 551.019531 428.703125 551.429688 429.253906 551.8125 429.824219 C 552.195312 430.398438 552.546875 430.984375 552.871094 431.59375 C 553.195312 432.199219 553.492188 432.820312 553.753906 433.457031 C 554.015625 434.089844 554.25 434.738281 554.449219 435.394531 C 554.648438 436.054688 554.816406 436.71875 554.949219 437.394531 C 555.085938 438.070312 555.183594 438.75 555.253906 439.433594 C 555.320312 440.117188 555.355469 440.804688 555.355469 441.492188 Z M 555.355469 441.492188 " fill-opacity="1" fill-rule="nonzero"/><path fill="#46312e" d="M 498.191406 410.949219 C 498.191406 410.949219 487.019531 426.953125 472.324219 425.191406 C 472.324219 425.191406 479.96875 436.351562 498.191406 428.570312 Z M 498.191406 410.949219 " fill-opacity="1" fill-rule="nonzero"/><path fill="#d2593e" d="M 977.105469 167.636719 C 977.105469 168.578125 977.058594 169.519531 976.964844 170.457031 C 976.875 171.394531 976.734375 172.324219 976.550781 173.25 C 976.367188 174.175781 976.136719 175.085938 975.863281 175.988281 C 975.589844 176.890625 975.273438 177.777344 974.914062 178.648438 C 974.550781 179.519531 974.148438 180.371094 973.703125 181.203125 C 973.257812 182.035156 972.773438 182.839844 972.25 183.625 C 971.726562 184.410156 971.164062 185.164062 970.566406 185.894531 C 969.96875 186.621094 969.335938 187.320312 968.667969 187.984375 C 968 188.652344 967.304688 189.285156 966.574219 189.882812 C 965.84375 190.480469 965.089844 191.042969 964.304688 191.566406 C 963.519531 192.089844 962.710938 192.574219 961.878906 193.015625 C 961.046875 193.460938 960.195312 193.863281 959.324219 194.226562 C 958.453125 194.585938 957.566406 194.902344 956.664062 195.175781 C 955.761719 195.449219 954.847656 195.679688 953.921875 195.863281 C 952.996094 196.046875 952.0625 196.183594 951.125 196.277344 C 950.1875 196.371094 949.246094 196.414062 948.300781 196.414062 C 947.359375 196.414062 946.417969 196.371094 945.480469 196.277344 C 944.539062 196.183594 943.609375 196.046875 942.683594 195.863281 C 941.757812 195.679688 940.84375 195.449219 939.941406 195.175781 C 939.039062 194.902344 938.152344 194.585938 937.28125 194.226562 C 936.410156 193.863281 935.558594 193.460938 934.726562 193.015625 C 933.894531 192.574219 933.085938 192.089844 932.300781 191.566406 C 931.515625 191.042969 930.757812 190.480469 930.03125 189.882812 C 929.300781 189.285156 928.601562 188.652344 927.9375 187.984375 C 927.269531 187.320312 926.636719 186.621094 926.039062 185.894531 C 925.4375 185.164062 924.878906 184.410156 924.355469 183.625 C 923.828125 182.839844 923.34375 182.035156 922.902344 181.203125 C 922.457031 180.371094 922.054688 179.519531 921.691406 178.648438 C 921.332031 177.777344 921.015625 176.890625 920.738281 175.988281 C 920.464844 175.085938 920.238281 174.175781 920.054688 173.25 C 919.867188 172.324219 919.730469 171.394531 919.636719 170.457031 C 919.546875 169.519531 919.5 168.578125 919.5 167.636719 C 919.5 166.691406 919.546875 165.753906 919.636719 164.8125 C 919.730469 163.875 919.867188 162.945312 920.054688 162.019531 C 920.238281 161.097656 920.464844 160.183594 920.738281 159.28125 C 921.015625 158.378906 921.332031 157.492188 921.691406 156.621094 C 922.054688 155.75 922.457031 154.898438 922.902344 154.066406 C 923.34375 153.238281 923.828125 152.429688 924.355469 151.644531 C 924.878906 150.863281 925.4375 150.105469 926.039062 149.378906 C 926.636719 148.648438 927.269531 147.949219 927.9375 147.285156 C 928.601562 146.617188 929.300781 145.984375 930.03125 145.386719 C 930.757812 144.789062 931.515625 144.230469 932.300781 143.707031 C 933.085938 143.179688 933.894531 142.699219 934.726562 142.253906 C 935.558594 141.808594 936.410156 141.40625 937.28125 141.046875 C 938.152344 140.683594 939.039062 140.367188 939.941406 140.09375 C 940.84375 139.820312 941.757812 139.589844 942.683594 139.40625 C 943.609375 139.222656 944.539062 139.085938 945.480469 138.992188 C 946.417969 138.902344 947.359375 138.855469 948.300781 138.855469 C 949.246094 138.855469 950.1875 138.902344 951.125 138.992188 C 952.0625 139.085938 952.996094 139.222656 953.921875 139.40625 C 954.847656 139.589844 955.761719 139.820312 956.664062 140.09375 C 957.566406 140.367188 958.453125 140.683594 959.324219 141.046875 C 960.195312 141.40625 961.046875 141.808594 961.878906 142.253906 C 962.710938 142.699219 963.519531 143.179688 964.304688 143.707031 C 965.089844 144.230469 965.84375 144.789062 966.574219 145.386719 C 967.304688 145.984375 968 146.617188 968.667969 147.285156 C 969.335938 147.949219 969.96875 148.648438 970.566406 149.378906 C 971.164062 150.105469 971.726562 150.863281 972.25 151.644531 C 972.773438 152.429688 973.257812 153.238281 973.703125 154.066406 C 974.148438 154.898438 974.550781 155.75 974.914062 156.621094 C 975.273438 157.492188 975.589844 158.378906 975.863281 159.28125 C 976.136719 160.183594 976.367188 161.097656 976.550781 162.019531 C 976.734375 162.945312 976.875 163.875 976.964844 164.8125 C 977.058594 165.753906 977.105469 166.691406 977.105469 167.636719 Z M 977.105469 167.636719 " fill-opacity="1" fill-rule="nonzero"/><path fill="#ffffff" d="M 969.464844 162.054688 C 969.464844 162.609375 969.4375 163.160156 969.382812 163.710938 C 969.328125 164.261719 969.246094 164.808594 969.136719 165.351562 C 969.03125 165.890625 968.894531 166.429688 968.734375 166.957031 C 968.574219 167.488281 968.386719 168.007812 968.175781 168.519531 C 967.964844 169.027344 967.730469 169.527344 967.46875 170.015625 C 967.207031 170.503906 966.921875 170.976562 966.613281 171.4375 C 966.308594 171.898438 965.976562 172.339844 965.628906 172.769531 C 965.277344 173.195312 964.90625 173.605469 964.511719 173.996094 C 964.121094 174.386719 963.710938 174.757812 963.285156 175.109375 C 962.855469 175.460938 962.414062 175.789062 961.953125 176.097656 C 961.492188 176.402344 961.019531 176.6875 960.53125 176.949219 C 960.042969 177.207031 959.542969 177.445312 959.03125 177.65625 C 958.519531 177.867188 958 178.054688 957.46875 178.214844 C 956.941406 178.375 956.402344 178.507812 955.859375 178.617188 C 955.316406 178.726562 954.769531 178.804688 954.21875 178.859375 C 953.667969 178.914062 953.117188 178.941406 952.5625 178.941406 C 952.011719 178.941406 951.457031 178.914062 950.90625 178.859375 C 950.355469 178.804688 949.808594 178.726562 949.265625 178.617188 C 948.722656 178.507812 948.1875 178.375 947.65625 178.214844 C 947.128906 178.054688 946.609375 177.867188 946.097656 177.65625 C 945.585938 177.445312 945.085938 177.207031 944.597656 176.949219 C 944.109375 176.6875 943.636719 176.402344 943.175781 176.097656 C 942.714844 175.789062 942.269531 175.460938 941.84375 175.109375 C 941.414062 174.757812 941.003906 174.386719 940.613281 173.996094 C 940.222656 173.605469 939.851562 173.195312 939.5 172.769531 C 939.148438 172.339844 938.820312 171.898438 938.511719 171.4375 C 938.203125 170.976562 937.921875 170.503906 937.660156 170.015625 C 937.398438 169.527344 937.164062 169.027344 936.949219 168.519531 C 936.738281 168.007812 936.550781 167.488281 936.390625 166.957031 C 936.230469 166.429688 936.097656 165.890625 935.988281 165.351562 C 935.882812 164.808594 935.800781 164.261719 935.746094 163.710938 C 935.691406 163.160156 935.664062 162.609375 935.664062 162.054688 C 935.664062 161.503906 935.691406 160.949219 935.746094 160.398438 C 935.800781 159.851562 935.882812 159.304688 935.988281 158.761719 C 936.097656 158.21875 936.230469 157.683594 936.390625 157.152344 C 936.550781 156.625 936.738281 156.105469 936.949219 155.59375 C 937.164062 155.082031 937.398438 154.582031 937.660156 154.09375 C 937.921875 153.605469 938.203125 153.132812 938.511719 152.671875 C 938.820312 152.214844 939.148438 151.769531 939.5 151.34375 C 939.851562 150.914062 940.222656 150.507812 940.613281 150.113281 C 941.003906 149.722656 941.414062 149.351562 941.84375 149 C 942.269531 148.652344 942.714844 148.320312 943.175781 148.015625 C 943.636719 147.707031 944.109375 147.421875 944.597656 147.164062 C 945.085938 146.902344 945.585938 146.664062 946.097656 146.453125 C 946.609375 146.242188 947.128906 146.054688 947.65625 145.894531 C 948.1875 145.734375 948.722656 145.601562 949.265625 145.492188 C 949.808594 145.386719 950.355469 145.304688 950.90625 145.25 C 951.457031 145.195312 952.011719 145.167969 952.5625 145.167969 C 953.117188 145.167969 953.667969 145.195312 954.21875 145.25 C 954.769531 145.304688 955.316406 145.386719 955.859375 145.492188 C 956.402344 145.601562 956.941406 145.734375 957.46875 145.894531 C 958 146.054688 958.519531 146.242188 959.03125 146.453125 C 959.542969 146.664062 960.042969 146.902344 960.53125 147.164062 C 961.019531 147.421875 961.492188 147.707031 961.953125 148.015625 C 962.414062 148.320312 962.855469 148.652344 963.285156 149 C 963.710938 149.351562 964.121094 149.722656 964.511719 150.113281 C 964.90625 150.507812 965.277344 150.914062 965.628906 151.34375 C 965.976562 151.769531 966.308594 152.214844 966.613281 152.671875 C 966.921875 153.132812 967.207031 153.605469 967.46875 154.09375 C 967.730469 154.582031 967.964844 155.082031 968.175781 155.59375 C 968.386719 156.105469 968.574219 156.625 968.734375 157.152344 C 968.894531 157.683594 969.03125 158.21875 969.136719 158.761719 C 969.246094 159.304688 969.328125 159.851562 969.382812 160.398438 C 969.4375 160.949219 969.464844 161.503906 969.464844 162.054688 Z M 969.464844 162.054688 " fill-opacity="0.1" fill-rule="nonzero"/></svg>